<svg width="18" height="18" viewBox="0 0 18 18" fill="none" xmlns="http://www.w3.org/2000/svg">
<path d="M8.48072 4.823C8.48072 6.00389 8.48072 7.19269 8.48072 8.43244C7.09704 8.43244 5.7253 8.43244 4.17188 8.43244C4.40769 7.00074 4.63629 5.61276 4.8685 4.20312C6.14877 4.42284 7.29344 4.61924 8.48072 4.823Z" fill="black"/>
<path d="M8.48994 13.0921C7.32695 13.2947 6.19727 13.4917 4.89299 13.719C4.65592 12.3612 4.41372 10.9742 4.15625 9.5C5.68872 9.5 7.07336 9.5 8.4898 9.5C8.48994 10.7193 8.48994 11.9083 8.48994 13.0921Z" fill="black"/>
<path d="M9.53125 8.4411C9.53125 7.19733 9.53125 6.00534 9.53125 4.82722C10.6805 4.62902 11.7906 4.43748 12.9228 4.24219C13.3711 4.91522 13.7879 7.18956 13.6578 8.44096C12.3112 8.4411 10.9595 8.4411 9.53125 8.4411Z" fill="black"/>
<path d="M13.1289 13.7256C11.8142 13.4963 10.687 13.2998 9.52344 13.097C9.52344 11.9115 9.52344 10.7195 9.52344 9.48438C10.9031 9.48438 12.2557 9.48438 13.8148 9.48438C13.5831 10.9169 13.359 12.3027 13.1289 13.7256Z" fill="black"/>
<path d="M14.8218 9.47656C15.8316 9.47656 16.8836 9.47656 17.9975 9.47656C17.842 11.6225 17.0795 13.4456 15.6576 15.0226C15.0789 14.7134 14.5362 14.4233 14.0234 14.1493C14.2867 12.6081 14.546 11.0908 14.8218 9.47656Z" fill="black"/>
<path d="M17.9986 8.4559C16.8637 8.4559 15.8304 8.4559 14.8178 8.4559C14.5511 6.8861 14.2905 5.35044 14.0234 3.77842C14.5164 3.51123 15.0589 3.2174 15.6474 2.89844C17.0699 4.45908 17.8298 6.28302 17.9986 8.4559Z" fill="black"/>
<path d="M2.33139 2.89844C2.916 3.20934 3.4612 3.49915 3.9717 3.77064C3.70216 5.33503 3.43761 6.87055 3.16709 8.44064C2.15928 8.44064 1.10664 8.44064 0 8.44064C0.137687 6.29052 0.917315 4.47643 2.33139 2.89844Z" fill="black"/>
<path d="M2.33819 15.0232C0.916899 13.4456 0.156564 11.6405 0 9.5C1.10108 9.5 2.16663 9.5 3.17722 9.5C3.44149 11.0512 3.70021 12.5701 3.96892 14.1478C3.49882 14.4001 2.95459 14.6923 2.33819 15.0232Z" fill="black"/>
<path d="M5.3125 3.29992C6.04133 1.79826 6.80458 0.544226 8.45697 0C8.45697 1.28235 8.45697 2.48365 8.45697 3.82832C7.41251 3.65274 6.40748 3.48383 5.3125 3.29992Z" fill="black"/>
<path d="M8.47598 17.9258C6.8043 17.3746 6.03855 16.1232 5.3125 14.6216C6.40401 14.4368 7.40876 14.2667 8.47598 14.0859C8.47598 15.4216 8.47598 16.6122 8.47598 17.9258Z" fill="black"/>
<path d="M12.6698 3.30638C11.5549 3.49709 10.5866 3.66268 9.54688 3.84048C9.54688 2.53453 9.54688 1.32532 9.54688 0.015625C11.1826 0.529594 11.9496 1.78918 12.6698 3.30638Z" fill="black"/>
<path d="M12.674 14.6177C11.9444 16.1367 11.182 17.383 9.53906 17.9225C9.53906 16.6283 9.53906 15.4268 9.53906 14.0938C10.5756 14.267 11.5591 14.4313 12.674 14.6177Z" fill="black"/>
<path d="M2.94531 15.7865C3.56671 15.4655 3.96978 15.2573 4.37701 15.0469C4.85004 15.8247 5.29558 16.5577 5.74126 17.2907C5.71586 17.3308 5.69046 17.371 5.66506 17.4112C4.81492 16.9034 3.96464 16.3954 2.94531 15.7865Z" fill="black"/>
<path d="M12.2812 17.252C12.7099 16.5457 13.1385 15.8392 13.6144 15.0547C14.0011 15.2514 14.4169 15.4628 15.0361 15.7775C14.0432 16.3816 13.2018 16.8933 12.3604 17.4051C12.334 17.3542 12.3076 17.3031 12.2812 17.252Z" fill="black"/>
<path d="M15.0265 2.12836C14.4486 2.44232 14.0542 2.65676 13.6318 2.8862C13.1643 2.12406 12.7149 1.3912 12.2656 0.658489C12.2919 0.613518 12.3181 0.568408 12.3445 0.523438C13.1874 1.02783 14.0303 1.53222 15.0265 2.12836Z" fill="black"/>
<path d="M5.71122 0.672962C5.27678 1.39249 4.84234 2.11202 4.38001 2.87791C3.9743 2.66929 3.57206 2.46235 2.96094 2.14797C3.93974 1.5553 4.78544 1.04328 5.63113 0.53125C5.65778 0.578441 5.68457 0.625632 5.71122 0.672962Z" fill="black"/>
</svg>
