<svg width="28" height="35" viewBox="0 0 28 35" fill="none" xmlns="http://www.w3.org/2000/svg">
<g clip-path="url(#clip0_25_477)">
<path d="M0 18.3106V6.09195C0 4.4628 0.580126 3.89661 2.26826 3.88058C2.83945 3.84183 3.41272 3.84183 3.9839 3.88058C4.22585 3.91263 4.4348 4.20908 4.6575 4.38535C4.44304 4.5723 4.25058 4.88744 4.01139 4.91949C3.41884 4.96723 2.82381 4.97883 2.22977 4.95421C1.33621 4.96757 1.13001 5.14918 1.13001 6.02251C1.13001 9.02709 1.10526 12.029 1.11076 15.0336C1.11076 20.0385 1.12726 25.0435 1.16025 30.0485C1.16025 30.2274 1.16025 30.4063 1.16025 30.5826C1.19324 31.4826 1.26198 31.5601 2.21052 31.5628C5.66928 31.5628 9.12804 31.5628 12.5868 31.5628C12.815 31.5628 13.0872 31.5013 13.2604 31.6002C13.4942 31.7262 13.6694 31.9346 13.7498 32.1824C13.7745 32.2999 13.4336 32.5189 13.2247 32.6311C13.1009 32.6978 12.9112 32.6498 12.7518 32.6498H2.24902C0.566377 32.6498 0 32.0916 0 30.4384V18.3106Z" fill="black"/>
<path d="M13.9974 28.1148C13.9974 24.4132 17.1509 21.4193 21.0633 21.4166C24.9125 21.4166 28.0056 24.4933 28.0001 28.3258C28.0001 31.8458 24.7393 34.9786 21.0578 35.0027C20.1283 35.002 19.208 34.8231 18.3498 34.4764C17.4915 34.1296 16.7121 33.6218 16.0562 32.9819C15.4003 32.3421 14.8809 31.5828 14.5276 30.7476C14.1743 29.9125 13.9941 29.0178 13.9974 28.1148ZM20.9699 33.8462C22.1219 33.8483 23.2487 33.519 24.2084 32.8999C25.168 32.2808 25.9175 31.3995 26.3624 30.3673C26.8072 29.335 26.9275 28.1979 26.708 27.0994C26.4886 26.0008 25.9392 24.9899 25.1292 24.1942C24.3192 23.3985 23.2848 22.8535 22.1564 22.6279C21.0281 22.4024 19.8562 22.5064 18.7886 22.9269C17.721 23.3473 16.8054 24.0654 16.1573 24.9905C15.5091 25.9157 15.1575 27.0065 15.1466 28.1255C15.1415 28.8728 15.2882 29.6136 15.5783 30.3057C15.8683 30.9979 16.296 31.6276 16.8369 32.159C17.3778 32.6903 18.0212 33.1129 18.7304 33.4024C19.4396 33.6919 20.2006 33.8427 20.9699 33.8462Z" fill="black"/>
<path d="M12.7876 6.11331H6.81033C5.97176 6.11331 5.90577 6.04655 5.89478 5.24266C5.89478 4.79665 5.89478 4.3533 5.89478 3.90729C5.93877 2.74552 6.5079 2.15262 7.6874 2.19001C8.42974 2.21672 8.78715 2.09386 8.86689 1.2686C8.94112 0.368563 9.39753 0.0560886 10.3488 0.0347227C11.9517 0.00534459 13.5574 -0.00801333 15.1603 0.00534035C16.2821 0.00534035 16.8099 0.483401 16.8924 1.56505C16.9282 2.02976 17.1151 2.20069 17.5688 2.17932C17.8211 2.16554 18.0742 2.17448 18.3249 2.20603C19.1332 2.30752 19.5786 2.68677 19.6996 3.46662C19.7876 4.05685 19.7546 4.66311 19.8068 5.25868C19.8645 5.92102 19.5319 6.11865 18.9022 6.11331C16.8649 6.11331 14.8276 6.11331 12.7903 6.11331H12.7876ZM12.8508 5.00763V5.02366C14.5472 5.02366 16.2408 5.02366 17.9372 5.02366C18.1682 5.02366 18.5888 4.93285 18.5998 4.84471C18.6728 4.43613 18.654 4.01707 18.5448 3.61618C18.4871 3.44525 18.0802 3.33308 17.8135 3.29035C17.4481 3.25452 17.0802 3.24827 16.7137 3.27165C16.1638 3.27165 15.8696 3.00458 15.8312 2.47043C15.8147 2.24876 15.7982 2.02709 15.7762 1.80542C15.7807 1.6936 15.7598 1.58216 15.7148 1.47913C15.6699 1.37609 15.602 1.284 15.516 1.20946C15.4301 1.13492 15.3282 1.07977 15.2178 1.04798C15.1073 1.01618 14.991 1.00853 14.8771 1.02556C13.5024 1.02556 12.1277 1.02556 10.753 1.02556C10.1756 1.02556 9.91166 1.29264 9.88967 1.82678C9.88967 2.02709 9.85668 2.22739 9.84018 2.42503C9.79619 3.01526 9.48551 3.31171 8.86139 3.28768C8.49572 3.27165 8.1273 3.28768 7.76163 3.28768C6.9368 3.28768 7.04403 3.85387 7.00554 4.35597C6.96155 4.90881 7.25849 5.029 7.76163 5.02366C9.46351 4.99695 11.1599 5.00763 12.8535 5.00763H12.8508Z" fill="black"/>
<path d="M25.6329 13.0359C25.6329 15.3736 25.6329 17.7097 25.6329 20.0439C25.6643 20.286 25.6475 20.5317 25.5834 20.7677C25.5386 20.8698 25.4702 20.9606 25.3834 21.0329C25.2966 21.1051 25.1938 21.157 25.083 21.1843C24.9153 21.1843 24.6678 20.9573 24.5881 20.7757C24.5225 20.5391 24.503 20.2927 24.5303 20.0492C24.5194 15.4449 24.5102 10.8405 24.5029 6.23617C24.5029 5.02633 24.4644 4.9916 23.2464 4.97024C22.7432 4.97024 22.2373 4.97024 21.7342 4.97024C21.3465 4.97024 21.0468 4.84205 21.0551 4.40138C21.0633 3.96071 21.3548 3.89126 21.7122 3.89393C22.4683 3.89393 23.2244 3.89393 23.9777 3.91263C24.9978 3.95269 25.5339 4.44677 25.5971 5.43762C25.6549 6.34834 25.6301 7.26174 25.6329 8.17246C25.6356 9.79092 25.6329 11.4147 25.6329 13.0359Z" fill="black"/>
<path d="M12.7876 15.1564H5.29822C5.09505 15.1885 4.88724 15.1794 4.68785 15.1297C4.4734 15.0336 4.13797 14.7905 4.17096 14.673C4.25824 14.4282 4.43812 14.2249 4.6741 14.1042C4.89334 14.0405 5.12458 14.0259 5.35046 14.0614H20.53C20.7142 14.0614 20.9424 14.008 21.0798 14.0935C21.2951 14.2169 21.4549 14.4141 21.528 14.6463C21.5472 14.7959 21.2888 15.0389 21.0991 15.1271C20.8791 15.1866 20.6488 15.2012 20.4227 15.1698H12.7876V15.1564Z" fill="black"/>
<path d="M12.8617 18.0435H20.3484C20.575 18.0175 20.8045 18.0283 21.0275 18.0755C21.2282 18.153 21.5279 18.3613 21.5196 18.4948C21.4709 18.7366 21.3256 18.9498 21.1155 19.0878C20.9725 19.1866 20.7168 19.1385 20.5133 19.1385H5.19912C5.06165 19.1385 4.92418 19.1385 4.78671 19.1385C4.38804 19.1171 4.06362 18.9222 4.16534 18.5296C4.22858 18.4061 4.32207 18.2997 4.43762 18.2195C4.55316 18.1394 4.6872 18.0882 4.82795 18.0702C7.50587 18.0355 10.1838 18.0488 12.8617 18.0488V18.0435Z" fill="black"/>
<path d="M9.48812 23.0484H4.95434C4.58317 23.0484 4.16251 23.0778 4.14601 22.5624C4.12952 22.0469 4.51993 21.9668 4.94334 21.9668H14.2089C14.6213 21.9668 15.0337 22.0149 15.0172 22.5463C15.0007 23.0778 14.5938 23.0458 14.2198 23.0458L9.48812 23.0484Z" fill="black"/>
<path d="M12.7874 9.52118C14.2501 9.52118 15.7128 9.52118 17.1865 9.52118C17.5934 9.52118 18.0113 9.52118 18.036 10.0553C18.0553 10.6562 17.5796 10.6162 17.1645 10.6162L8.66329 10.6322C8.52582 10.6322 8.3526 10.6776 8.25912 10.6135C8.03879 10.4428 7.8303 10.2581 7.63501 10.0607C7.84946 9.87906 8.05567 9.55323 8.27562 9.54522C9.7823 9.49982 11.3 9.52118 12.7984 9.52118H12.7874Z" fill="black"/>
<path d="M8.52601 27.0359H4.95178C4.54211 27.0359 4.12695 27.0145 4.12695 26.4723C4.12695 25.9916 4.50087 25.9195 4.89678 25.9195C7.32177 25.9195 9.74675 25.9195 12.1717 25.9195C12.5621 25.9195 12.9333 25.9783 12.9471 26.4536C12.9636 26.9878 12.5649 27.0279 12.1497 27.0279L8.52601 27.0359Z" fill="black"/>
<path d="M20.1531 30.4411C19.9716 30.3796 19.8369 30.3716 19.7654 30.3022C19.1468 29.7119 18.5145 29.1297 17.9481 28.4941C17.8971 28.3821 17.8771 28.2591 17.8901 28.1373C17.9031 28.0155 17.9487 27.8991 18.0223 27.7997C18.1625 27.6795 18.5337 27.7169 18.7564 27.7997C18.9791 27.8825 19.1248 28.1202 19.3063 28.2884C20.0596 28.9962 20.1861 28.9962 20.9147 28.2884C21.6433 27.5807 22.3086 26.9531 23.0097 26.2774C23.2847 26.0103 23.5926 25.7219 23.9995 26.1011C24.4064 26.4804 24.104 26.7875 23.8318 27.0546C22.8054 28.0694 21.7716 29.0745 20.7305 30.0698C20.5523 30.2134 20.3588 30.3379 20.1531 30.4411Z" fill="black"/>
</g>
<defs>
<clipPath id="clip0_25_477">
<rect width="28" height="35" fill="white"/>
</clipPath>
</defs>
</svg>
