<svg width="13" height="18" viewBox="0 0 13 18" fill="none" xmlns="http://www.w3.org/2000/svg">
<g clip-path="url(#clip0_35_449)">
<path d="M12.1951 16.8015C11.6657 17.1478 11.0967 17.4255 10.501 17.6283C10.1593 17.7503 9.81553 17.8915 9.46104 17.9439C8.74872 18.0486 8.04243 18.0128 7.35826 17.7227C6.42748 17.3321 5.64279 16.7278 4.9231 16.0223C3.78393 14.902 2.86857 13.5915 1.98738 12.2549C1.25429 11.1442 0.841506 9.90264 0.549341 8.61215C0.176763 6.9689 0.02532 5.29877 0.000526209 3.6128C-0.0249377 1.90616 0.875681 0.810658 2.28692 0.321471C2.72047 0.170581 3.18754 0.120973 3.63919 0.0265811C3.68623 0.0223896 3.73354 0.0223896 3.78058 0.0265811C3.79532 0.496476 3.81073 0.953969 3.82346 1.41146C3.85876 2.63925 3.8936 3.86704 3.928 5.09483C3.928 5.17751 3.92465 5.23952 3.83352 5.28706C2.87192 5.79003 2.81898 6.79872 3.16341 7.49598C4.02852 9.23638 4.94053 10.952 5.83712 12.6752C5.93412 12.856 6.04107 13.0311 6.15743 13.1995C6.55615 13.7906 7.10898 13.9718 7.76568 13.7307C7.8997 13.6832 8.023 13.6211 8.16774 13.5578L12.1951 16.8015Z" fill="black"/>
<path d="M8.5 13.167C8.87325 12.9652 9.21768 12.7647 9.57552 12.5945C9.68704 12.5567 9.80827 12.5634 9.91526 12.6131C10.1113 12.6939 10.2967 12.7994 10.4674 12.9273C11.2045 13.5019 11.937 14.0868 12.6667 14.6732C13.0018 14.944 13.0688 15.1693 12.9394 15.5923C12.8496 15.8934 12.7558 16.1931 12.662 16.4935C12.662 16.5025 12.6479 16.5087 12.6258 16.53L8.5 13.167Z" fill="black"/>
<path d="M4.24052 0.000315014C4.49139 -0.00465441 4.74005 0.0492292 4.96764 0.157871C5.19522 0.266512 5.39572 0.427053 5.55392 0.627301C5.6041 0.702638 5.62989 0.792327 5.62763 0.883607C5.6455 2.00345 5.65935 3.12284 5.66918 4.24177C5.67284 4.29792 5.6605 4.35395 5.63366 4.403C5.39645 4.75163 5.09155 5.01 4.6848 5.12368C4.44088 5.19258 4.36181 5.1416 4.35444 4.88323C4.30976 3.2944 4.26844 1.70535 4.23047 0.116068C4.23177 0.0773248 4.23512 0.0386821 4.24052 0.000315014Z" fill="black"/>
</g>
<defs>
<clipPath id="clip0_35_449">
<rect width="13" height="18" fill="white"/>
</clipPath>
</defs>
</svg>
