<svg width="13" height="13" viewBox="0 0 13 13" fill="none" xmlns="http://www.w3.org/2000/svg">
<path d="M6.4635 3.89677C4.94893 3.89677 3.72728 5.11843 3.72728 6.633C3.72728 8.14757 4.94893 9.36923 6.4635 9.36923C7.97808 9.36923 9.19973 8.14757 9.19973 6.633C9.19973 5.11843 7.97808 3.89677 6.4635 3.89677ZM6.4635 8.4119C5.48475 8.4119 4.6846 7.61413 4.6846 6.633C4.6846 5.65186 5.48237 4.85409 6.4635 4.85409C7.44464 4.85409 8.24241 5.65186 8.24241 6.633C8.24241 7.61413 7.44226 8.4119 6.4635 8.4119ZM9.94988 3.78484C9.94988 4.13967 9.66411 4.42306 9.31166 4.42306C8.95683 4.42306 8.67344 4.13729 8.67344 3.78484C8.67344 3.4324 8.95921 3.14663 9.31166 3.14663C9.66411 3.14663 9.94988 3.4324 9.94988 3.78484ZM11.7621 4.43258C11.7216 3.57766 11.5264 2.82038 10.9001 2.19645C10.2761 1.57252 9.51884 1.37725 8.66392 1.33438C7.7828 1.28437 5.14183 1.28437 4.26071 1.33438C3.40817 1.37487 2.65088 1.57014 2.02457 2.19407C1.39827 2.81799 1.20537 3.57528 1.16251 4.4302C1.1125 5.31132 1.1125 7.95229 1.16251 8.83341C1.20299 9.68833 1.39827 10.4456 2.02457 11.0695C2.65088 11.6935 3.40579 11.8887 4.26071 11.9316C5.14183 11.9816 7.7828 11.9816 8.66392 11.9316C9.51884 11.8911 10.2761 11.6959 10.9001 11.0695C11.524 10.4456 11.7193 9.68833 11.7621 8.83341C11.8121 7.95229 11.8121 5.3137 11.7621 4.43258ZM10.6238 9.77883C10.4381 10.2456 10.0785 10.6052 9.60934 10.7933C8.90682 11.0719 7.23984 11.0076 6.4635 11.0076C5.68717 11.0076 4.01781 11.0695 3.31767 10.7933C2.85092 10.6076 2.49133 10.248 2.3032 9.77883C2.02457 9.07631 2.08887 7.40933 2.08887 6.633C2.08887 5.85666 2.02696 4.1873 2.3032 3.48717C2.48895 3.02041 2.84854 2.66082 3.31767 2.47269C4.02019 2.19407 5.68717 2.25837 6.4635 2.25837C7.23984 2.25837 8.9092 2.19645 9.60934 2.47269C10.0761 2.65844 10.4357 3.01803 10.6238 3.48717C10.9024 4.18968 10.8381 5.85666 10.8381 6.633C10.8381 7.40933 10.9024 9.0787 10.6238 9.77883Z" fill="black"/>
</svg>
