<svg width="12" height="12" viewBox="0 0 12 12" fill="none" xmlns="http://www.w3.org/2000/svg">
<g clip-path="url(#clip0_35_400)">
<path d="M10.1821 3.77203C10.1888 3.86557 10.1888 3.95912 10.1888 4.05266C10.1888 6.90566 8.01727 10.193 4.04842 10.193C2.82569 10.193 1.68984 9.83886 0.734375 9.22418C0.908101 9.24422 1.07512 9.2509 1.25553 9.2509C2.26443 9.2509 3.19318 8.91015 3.93483 8.32886C2.98605 8.3088 2.19095 7.68742 1.917 6.83218C2.05064 6.85221 2.18426 6.86558 2.32459 6.86558C2.51835 6.86558 2.71212 6.83884 2.89251 6.7921C1.90365 6.59163 1.16198 5.72304 1.16198 4.67404V4.64732C1.44927 4.80768 1.78338 4.9079 2.13747 4.92125C1.55618 4.53371 1.17534 3.87225 1.17534 3.12391C1.17534 2.72303 1.28223 2.35554 1.46932 2.03483C2.53169 3.34441 4.12859 4.19963 5.91923 4.29319C5.88583 4.13283 5.86577 3.96581 5.86577 3.79877C5.86577 2.60944 6.82792 1.64062 8.02391 1.64062C8.64529 1.64062 9.20654 1.9012 9.60076 2.32214C10.0885 2.2286 10.5562 2.04819 10.9705 1.80098C10.8101 2.30211 10.4693 2.72305 10.0217 2.99029C10.456 2.94354 10.8769 2.82325 11.2645 2.65623C10.9705 3.08383 10.603 3.46466 10.1821 3.77203Z" fill="black"/>
</g>
<defs>
<clipPath id="clip0_35_400">
<rect width="10.5301" height="10.5301" fill="white" transform="translate(0.734375 0.648438)"/>
</clipPath>
</defs>
</svg>
