<svg width="23" height="23" viewBox="0 0 23 23" fill="none" xmlns="http://www.w3.org/2000/svg">
<g clip-path="url(#clip0_35_427)">
<path d="M11.485 0C17.8329 0.0645705 22.9867 5.04102 23.0002 11.5052C23.0106 17.7685 18.0591 22.9567 11.5393 22.9987C5.42926 23.0387 0.042877 18.267 0.000230514 11.5349C-0.0391851 5.19921 4.98082 0.109124 11.485 0ZM10.0299 12.9251C9.56402 12.4518 9.25968 12.1218 8.93143 11.8151C8.30854 11.2301 7.58354 10.9686 6.72222 11.15C6.04763 11.2921 5.36529 11.4173 4.69199 11.5523C3.98122 11.6944 3.86943 11.9494 4.28426 12.5299C5.34956 14.0202 6.42046 15.5068 7.49696 16.9898C8.6426 18.5666 10.5022 18.6099 11.7248 17.075C13.8481 14.4095 15.9028 11.6873 18.0927 9.07732C19.1504 7.81625 19.0212 6.56682 18.5676 5.20761C18.4384 4.8105 18.0998 4.74722 17.7709 5.02358C17.6849 5.0959 17.608 5.1792 17.5286 5.25862C15.1593 7.61932 12.7901 9.9813 10.4208 12.3446C10.278 12.4924 10.1863 12.6913 10.0299 12.9251Z" fill="black"/>
</g>
<defs>
<clipPath id="clip0_35_427">
<rect width="23" height="23" fill="white"/>
</clipPath>
</defs>
</svg>
