<svg width="59" height="59" viewBox="0 0 59 59" fill="none" xmlns="http://www.w3.org/2000/svg">
<path d="M42.9579 22.1229C42.98 22.1254 43.0046 22.1254 43.0267 22.1254C43.3512 22.1254 43.6659 21.9976 43.8945 21.764L52.4987 13.1599C52.978 12.6806 52.978 11.9013 52.4987 11.4219C52.0193 10.9425 51.24 10.9425 50.7606 11.4219L43.1275 19.055L39.0688 13.981C38.6435 13.4525 37.8716 13.364 37.3406 13.7893C36.812 14.2146 36.726 14.9865 37.1488 15.5175L42.0655 21.6632C42.2843 21.9361 42.6088 22.1033 42.9579 22.1229Z" fill="url(#paint0_linear_35_467)"/>
<path fill-rule="evenodd" clip-rule="evenodd" d="M44.2559 34.4169C44.0936 34.4169 43.9314 34.385 43.7789 34.3186C43.1939 34.0752 29.5059 28.1581 29.5059 16.0681V5.79485C29.5059 5.26877 29.8427 4.79923 30.3417 4.62961L43.8625 0.0645306C44.1182 -0.0215102 44.3935 -0.0215102 44.6492 0.0645306L58.17 4.62961C58.6691 4.79923 59.0059 5.26877 59.0059 5.79485V16.0681C59.0059 28.1581 45.3179 34.0752 44.7328 34.321C44.5804 34.385 44.4181 34.4169 44.2559 34.4169ZM31.9642 6.67738V16.0681C31.9642 25.3728 41.9327 30.7147 44.2559 31.8357C46.5765 30.7123 56.5475 25.3507 56.5475 16.0681V6.67738L44.2559 2.52775L31.9642 6.67738Z" fill="url(#paint1_linear_35_467)"/>
<path fill-rule="evenodd" clip-rule="evenodd" d="M5.00329 35.2097C5.0081 35.197 5.01314 35.1843 5.0184 35.1716L9.91048 23.4455C10.8717 21.1519 13.0916 19.6671 15.5671 19.6671H23.9009C24.5794 19.6671 25.13 20.2177 25.13 20.8962C25.13 21.5747 24.5818 22.1254 23.9009 22.1254H15.5671C14.1069 22.1254 12.7474 23.0374 12.1795 24.3944L7.98893 34.4391C8.19408 34.4244 8.40119 34.4169 8.61003 34.4169H34.0538C34.7323 34.4169 35.2829 34.9676 35.2829 35.6461C35.2829 36.3246 34.7323 36.8752 34.0538 36.8752H8.61003C5.22244 36.8752 2.46419 39.6334 2.46419 43.021L2.46419 45.4804C2.46478 47.5129 4.11901 49.1668 6.15169 49.1668H47.9434C49.9764 49.1668 51.6309 47.5123 51.6309 45.4793V43.021C51.6309 41.4821 51.0581 40.0145 50.0157 38.8886C49.5536 38.3895 49.5855 37.6127 50.0846 37.1506C50.5787 36.6884 51.3604 36.7179 51.8226 37.2194C53.2829 38.8025 54.0892 40.8626 54.0892 43.021L54.0892 54.0834C54.0892 56.7949 51.8841 59 49.1725 59C46.461 59 44.2559 56.7949 44.2559 54.0834V51.6251H9.83919V54.0834C9.83919 56.7949 7.63407 59 4.92253 59C2.21098 59 0.00585938 56.7949 0.00585938 54.0834V43.021C0.00585938 39.5636 2.05534 36.5762 5.00329 35.2097ZM46.7142 54.0834V51.6251H47.9434C49.3255 51.6251 50.6028 51.1659 51.6309 50.3922V54.0834C51.6309 55.4379 50.5271 56.5417 49.1725 56.5417C47.818 56.5417 46.7142 55.4379 46.7142 54.0834ZM7.38086 51.6251H6.15169C4.76957 51.6251 3.49221 51.1659 2.46419 50.3922V54.0834C2.46419 55.4379 3.56798 56.5417 4.92253 56.5417C6.27707 56.5417 7.38086 55.4379 7.38086 54.0834V51.6251Z" fill="url(#paint2_linear_35_467)"/>
<path d="M15.985 44.2501H8.61002C7.93152 44.2501 7.38086 43.6995 7.38086 43.021C7.38086 42.3425 7.93152 41.7918 8.61002 41.7918H15.985C16.6635 41.7918 17.2142 42.3425 17.2142 43.021C17.2142 43.6995 16.6635 44.2501 15.985 44.2501Z" fill="url(#paint3_linear_35_467)"/>
<path d="M38.11 44.2501H45.485C46.1635 44.2501 46.7142 43.6995 46.7142 43.021C46.7142 42.3425 46.1635 41.7918 45.485 41.7918H38.11C37.4315 41.7918 36.8809 42.3425 36.8809 43.021C36.8809 43.6995 37.4315 44.2501 38.11 44.2501Z" fill="url(#paint4_linear_35_467)"/>
<defs>
<linearGradient id="paint0_linear_35_467" x1="5.81972" y1="3.8759" x2="52.3305" y2="58.7846" gradientUnits="userSpaceOnUse">
<stop/>
<stop offset="0.705"/>
</linearGradient>
<linearGradient id="paint1_linear_35_467" x1="5.81972" y1="3.8759" x2="52.3305" y2="58.7846" gradientUnits="userSpaceOnUse">
<stop/>
<stop offset="0.705"/>
</linearGradient>
<linearGradient id="paint2_linear_35_467" x1="5.81972" y1="3.8759" x2="52.3305" y2="58.7846" gradientUnits="userSpaceOnUse">
<stop/>
<stop offset="0.705"/>
</linearGradient>
<linearGradient id="paint3_linear_35_467" x1="5.81972" y1="3.8759" x2="52.3305" y2="58.7846" gradientUnits="userSpaceOnUse">
<stop/>
<stop offset="0.705"/>
</linearGradient>
<linearGradient id="paint4_linear_35_467" x1="5.81972" y1="3.8759" x2="52.3305" y2="58.7846" gradientUnits="userSpaceOnUse">
<stop/>
<stop offset="0.705"/>
</linearGradient>
</defs>
</svg>
