<svg width="20" height="18" viewBox="0 0 20 18" fill="none" xmlns="http://www.w3.org/2000/svg">
<g clip-path="url(#clip0_35_691)">
<path d="M15.8252 5.7603C15.8252 6.89401 15.793 8.02771 15.8338 9.16034C15.844 9.46575 15.792 9.77003 15.681 10.0546C15.5701 10.3391 15.4025 10.598 15.1884 10.8152C14.9744 11.0325 14.7185 11.2037 14.4364 11.3183C14.1542 11.4329 13.8517 11.4885 13.5474 11.4817C11.6116 11.4472 9.67585 11.4817 7.74005 11.4709C7.6384 11.4666 7.53712 11.4857 7.44393 11.5267C7.35073 11.5676 7.2681 11.6295 7.20233 11.7074C6.14625 12.8454 5.0855 13.9795 4.0201 15.1096C3.94426 15.1976 3.85793 15.2759 3.76307 15.3428C3.72678 15.3705 3.68413 15.3886 3.63906 15.3955C3.59398 15.4023 3.54791 15.3977 3.50508 15.382C3.46226 15.3663 3.42405 15.34 3.39396 15.3056C3.36387 15.2713 3.34287 15.2298 3.33289 15.1852C3.30493 15.0796 3.29297 14.9704 3.2974 14.8613C3.2974 13.8902 3.2974 12.9185 3.2974 11.946C3.2974 11.4699 3.2974 11.4828 2.83388 11.4655C2.39725 11.4504 1.94557 11.4655 1.53045 11.3576C1.09292 11.2398 0.706496 10.98 0.431425 10.6187C0.156354 10.2574 0.00809818 9.81485 0.00977343 9.36008C-0.00420732 6.94043 -0.00743364 4.52079 0.00977343 2.10114C0.0194524 0.901567 0.991652 0.0172755 2.2596 0.00431888C3.20921 -0.0053986 4.15883 0.00431888 5.10844 0.00431888C7.94044 0.00431888 10.7724 0.00431888 13.6044 0.00431888C13.97 -0.00634572 14.3322 0.0774087 14.6562 0.247559C14.9803 0.417709 15.2554 0.668554 15.4553 0.976066C15.705 1.34282 15.8336 1.77904 15.8231 2.22314C15.822 3.40328 15.8252 4.58233 15.8252 5.7603ZM4.27498 4.74645C4.14941 4.74416 4.02464 4.76687 3.90786 4.81327C3.79109 4.85968 3.68463 4.92884 3.59464 5.01679C3.50464 5.10473 3.43289 5.20971 3.38354 5.32565C3.33418 5.44159 3.30819 5.5662 3.30708 5.69228C3.31248 5.94128 3.4129 6.17868 3.58761 6.35549C3.76232 6.53231 3.99798 6.63502 4.24594 6.64243C4.49637 6.64601 4.73795 6.54957 4.91755 6.37432C5.09715 6.19906 5.20006 5.95936 5.20362 5.70794C5.20719 5.45651 5.11112 5.21396 4.93657 5.03365C4.76201 4.85333 4.52325 4.75003 4.27283 4.74645H4.27498ZM11.6041 4.74645C11.3586 4.74474 11.1221 4.83909 10.9447 5.00951C10.7674 5.17992 10.6631 5.413 10.654 5.65931C10.6449 5.90562 10.7317 6.14581 10.896 6.32893C11.0604 6.51206 11.2893 6.62374 11.5342 6.64028C11.6597 6.64503 11.7848 6.62468 11.9023 6.58042C12.0199 6.53615 12.1275 6.46885 12.2188 6.38243C12.3102 6.29601 12.3836 6.19221 12.4346 6.07706C12.4856 5.96191 12.5133 5.83772 12.5161 5.71172C12.5198 5.58815 12.4991 5.46507 12.4552 5.34957C12.4113 5.23408 12.345 5.12846 12.2602 5.03882C12.1754 4.94917 12.0738 4.87728 11.9612 4.82728C11.8486 4.77728 11.7272 4.75018 11.6041 4.74753V4.74645ZM8.85206 5.69768C8.85375 5.57418 8.8312 5.45155 8.78569 5.3368C8.74019 5.22205 8.67261 5.11742 8.58683 5.02889C8.50105 4.94036 8.39873 4.86967 8.28574 4.82083C8.17274 4.772 8.05127 4.74599 7.92826 4.74429C7.80524 4.74258 7.6831 4.76522 7.56881 4.81091C7.45451 4.8566 7.3503 4.92445 7.26212 5.01057C7.17394 5.0967 7.10352 5.19942 7.05488 5.31286C7.00624 5.42631 6.98033 5.54827 6.97864 5.67177C6.97694 5.79527 6.99949 5.91789 7.045 6.03264C7.09051 6.14739 7.15808 6.25202 7.24387 6.34055C7.32965 6.42908 7.43196 6.49978 7.54496 6.54861C7.65796 6.59745 7.77943 6.62346 7.90244 6.62516C8.02545 6.62686 8.14759 6.60422 8.26189 6.55853C8.37618 6.51284 8.4804 6.445 8.56858 6.35887C8.65676 6.27275 8.72718 6.17003 8.77582 6.05658C8.82446 5.94313 8.85036 5.82118 8.85206 5.69768Z" fill="black"/>
<path d="M10.9242 12.2975C11.8298 12.2975 12.7342 12.304 13.6387 12.2975C15.325 12.2834 16.6166 11.0018 16.6434 9.31421C16.6585 8.34246 16.6531 7.37071 16.6434 6.39897C16.6434 6.14523 16.7144 6.04374 16.979 6.05562C17.3984 6.07397 17.82 6.05561 18.2416 6.06209C19.2095 6.07505 19.9741 6.78011 19.9859 7.74646C20.0082 9.60645 20.0082 11.4679 19.9859 13.3308C19.9754 13.7683 19.7981 14.185 19.4905 14.4952C19.183 14.8054 18.7687 14.9853 18.333 14.9979C18.1363 15.0086 17.9392 15.0086 17.7426 14.9979C17.5275 14.986 17.4586 15.0734 17.4608 15.2818C17.4683 16.0009 17.4608 16.7211 17.4608 17.4413C17.4631 17.5402 17.4574 17.6391 17.4436 17.7371C17.4395 17.7916 17.4201 17.8438 17.3878 17.8877C17.3555 17.9316 17.3115 17.9655 17.2608 17.9855C17.2102 18.0054 17.1549 18.0106 17.1015 18.0005C17.048 17.9904 16.9985 17.9653 16.9586 17.9282C16.8559 17.8412 16.7606 17.7459 16.6736 17.6432C15.9304 16.8506 15.1852 16.0614 14.4506 15.2613C14.3769 15.1732 14.2839 15.1035 14.1789 15.0576C14.0738 15.0117 13.9596 14.9909 13.8451 14.9968C12.4299 15.0076 11.0146 15.0032 9.5993 15.0022C8.4389 15.0022 7.7162 14.2798 7.71083 13.1224C7.71083 12.9518 7.71943 12.7801 7.71083 12.6106C7.69362 12.3741 7.79686 12.2932 8.02593 12.2953C8.98953 12.3018 9.95743 12.2986 10.9242 12.2975Z" fill="black"/>
</g>
<defs>
<clipPath id="clip0_35_691">
<rect width="20" height="18" fill="white"/>
</clipPath>
</defs>
</svg>
