<?xml version="1.0" encoding="utf-8"?>
<!DOCTYPE svg PUBLIC "-//W3C//DTD SVG 1.1//EN" "http://www.w3.org/Graphics/SVG/1.1/DTD/svg11.dtd">
<svg version="1.1" xmlns="http://www.w3.org/2000/svg" xmlns:xlink="http://www.w3.org/1999/xlink" x="0px" y="0px"
	 width="209px" height="47.055px" viewBox="0 0 209 47.055" style="enable-background:new 0 0 209 47.055;" xml:space="preserve">
<g>
	<g>
		<path style="fill:#FFFFFF;" d="M59.353,35.851c-4.788,0-8.936-2.733-10.976-6.722c-0.91,4.088-2.816,7.88-5.595,11.082
			c4.256,4.227,10.113,6.843,16.571,6.843c6.487,0,12.368-2.639,16.629-6.899l-7.914-7.914
			C65.837,34.472,62.756,35.851,59.353,35.851z"/>
		<path style="fill:#FFB100;" d="M59.353,11.204c3.403,0,6.484,1.379,8.714,3.61l7.914-7.914C71.721,2.639,65.839,0,59.353,0
			c-7.167,0-13.595,3.222-17.914,8.294c-2.485,2.918-4.271,6.447-5.097,10.328c-0.337,1.583-0.516,3.224-0.516,4.906h0.011
			c0,0.1-0.005,0.201-0.007,0.301c-0.074,3.053-1.273,6.084-3.602,8.414c-3.386,3.386-8.251,4.386-12.515,3.008
			c-0.898-0.29-1.77-0.686-2.596-1.187c-0.826-0.501-1.605-1.108-2.318-1.821c-1.427-1.427-2.427-3.117-3.008-4.914v0
			c-0.399-1.233-0.597-2.517-0.597-3.8h0c0-0.656,0.055-1.311,0.158-1.961c0.395-2.472,1.541-4.848,3.447-6.754
			c2.406-2.406,5.56-3.61,8.714-3.61c1.284,0,2.567,0.203,3.8,0.602L13.389,25.729c0.073,0.336,0.16,0.669,0.266,0.996
			c0.508,1.571,1.359,2.961,2.529,4.131c1.17,1.17,2.56,2.021,4.131,2.529c0.328,0.106,0.661,0.194,0.996,0.266L33.993,20.97
			c0.538-5.372,2.75-10.258,6.107-14.126C38.748,5.5,37.272,4.355,35.71,3.408c-3.734-2.263-7.965-3.397-12.198-3.397
			c-6.025,0-12.05,2.293-16.636,6.88c-4.089,4.089-6.35,9.32-6.793,14.676C0.029,22.22,0,22.874,0,23.528h0
			c0,4.232,1.129,8.464,3.393,12.198c0.959,1.581,2.119,3.074,3.483,4.439c1.365,1.365,2.857,2.525,4.439,3.483
			c9.049,5.485,21.025,4.325,28.834-3.483c0.453-0.453,0.883-0.921,1.292-1.401c3.725-4.377,5.588-9.806,5.588-15.236
			C47.029,16.721,52.546,11.204,59.353,11.204z"/>
	</g>
	<g>
		<path style="fill:#FFB100;" d="M81.326,28.2V7.066h15.67v3.575H85.593v4.686h10.61v3.561h-10.61v5.752h11.807V28.2H81.326z"/>
		<path style="fill:#FFB100;" d="M99.346,21.324l4.152-0.404c0.25,1.394,0.757,2.417,1.521,3.07c0.765,0.654,1.795,0.98,3.093,0.98
			c1.374,0,2.409-0.29,3.106-0.872c0.696-0.581,1.045-1.261,1.045-2.04c0-0.499-0.146-0.925-0.439-1.275s-0.805-0.656-1.535-0.915
			c-0.5-0.174-1.639-0.48-3.417-0.923c-2.287-0.567-3.893-1.264-4.814-2.091c-1.298-1.162-1.946-2.58-1.946-4.253
			c0-1.076,0.305-2.083,0.915-3.02c0.61-0.938,1.489-1.65,2.639-2.141c1.148-0.49,2.534-0.735,4.158-0.735
			c2.653,0,4.649,0.581,5.99,1.744s2.045,2.715,2.112,4.656l-4.268,0.188c-0.183-1.086-0.574-1.867-1.175-2.343
			s-1.502-0.713-2.703-0.713c-1.239,0-2.21,0.254-2.912,0.764c-0.451,0.327-0.678,0.764-0.678,1.312c0,0.5,0.212,0.928,0.635,1.283
			c0.538,0.452,1.845,0.923,3.921,1.413s3.611,0.997,4.606,1.521c0.994,0.524,1.772,1.24,2.335,2.148s0.844,2.03,0.844,3.366
			c0,1.211-0.337,2.345-1.01,3.401c-0.673,1.058-1.624,1.844-2.854,2.357c-1.229,0.514-2.763,0.771-4.599,0.771
			c-2.672,0-4.724-0.617-6.155-1.853S99.625,23.687,99.346,21.324z"/>
		<path style="fill:#FFB100;" d="M133.052,20.429l4.138,1.313c-0.635,2.307-1.689,4.02-3.164,5.139
			c-1.476,1.12-3.348,1.68-5.615,1.68c-2.807,0-5.113-0.959-6.92-2.876s-2.71-4.538-2.71-7.864c0-3.518,0.908-6.249,2.725-8.195
			s4.204-2.919,7.165-2.919c2.585,0,4.685,0.764,6.3,2.292c0.961,0.903,1.682,2.201,2.162,3.893l-4.224,1.009
			c-0.25-1.096-0.771-1.961-1.564-2.595c-0.793-0.635-1.757-0.951-2.891-0.951c-1.566,0-2.838,0.562-3.813,1.687
			c-0.976,1.124-1.464,2.945-1.464,5.464c0,2.672,0.48,4.574,1.442,5.708c0.961,1.135,2.21,1.701,3.748,1.701
			c1.134,0,2.109-0.36,2.926-1.081C132.11,23.111,132.696,21.977,133.052,20.429z"/>
		<path style="fill:#FFB100;" d="M140.274,28.2V7.066h8.981c2.259,0,3.899,0.189,4.923,0.569s1.843,1.055,2.458,2.025
			s0.923,2.081,0.923,3.33c0,1.586-0.466,2.896-1.398,3.929s-2.326,1.685-4.181,1.953c0.923,0.538,1.685,1.129,2.285,1.773
			c0.601,0.644,1.41,1.787,2.429,3.431l2.581,4.123h-5.104l-3.085-4.599c-1.096-1.644-1.846-2.679-2.249-3.106
			s-0.831-0.721-1.283-0.88c-0.452-0.158-1.168-0.237-2.147-0.237h-0.865V28.2H140.274z M144.542,16.003h3.157
			c2.047,0,3.325-0.086,3.834-0.259c0.51-0.174,0.908-0.471,1.197-0.895c0.288-0.423,0.433-0.951,0.433-1.585
			c0-0.712-0.19-1.286-0.57-1.724c-0.379-0.437-0.915-0.713-1.607-0.828c-0.346-0.048-1.384-0.072-3.113-0.072h-3.33V16.003z"/>
		<path style="fill:#FFB100;" d="M160.126,17.762c0-2.152,0.321-3.959,0.966-5.42c0.48-1.076,1.137-2.042,1.968-2.897
			s1.742-1.49,2.731-1.903c1.316-0.558,2.835-0.836,4.556-0.836c3.114,0,5.605,0.966,7.475,2.897s2.804,4.618,2.804,8.059
			c0,3.412-0.927,6.081-2.782,8.008c-1.854,1.928-4.334,2.891-7.438,2.891c-3.143,0-5.642-0.959-7.496-2.876
			C161.053,23.767,160.126,21.126,160.126,17.762z M164.522,17.619c0,2.393,0.553,4.207,1.658,5.441
			c1.104,1.235,2.508,1.853,4.209,1.853s3.098-0.612,4.188-1.838s1.636-3.063,1.636-5.514c0-2.422-0.531-4.229-1.593-5.421
			c-1.063-1.191-2.473-1.787-4.231-1.787s-3.176,0.603-4.252,1.809C165.06,13.368,164.522,15.187,164.522,17.619z"/>
		<path style="fill:#FFB100;" d="M186.364,28.2l-5.046-21.134h4.368l3.187,14.517l3.863-14.517h5.074l3.705,14.762l3.243-14.762
			h4.296L203.923,28.2h-4.526l-4.21-15.8l-4.194,15.8H186.364z"/>
	</g>
	<g>
		<path style="fill:#FFFFFF;" d="M87.999,38.113l1.399,0.354c-0.293,1.149-0.821,2.026-1.584,2.63
			c-0.763,0.604-1.694,0.906-2.797,0.906c-1.14,0-2.067-0.232-2.781-0.696c-0.715-0.465-1.259-1.137-1.631-2.018
			c-0.373-0.88-0.56-1.826-0.56-2.836c0-1.102,0.21-2.063,0.631-2.883s1.021-1.443,1.798-1.869c0.776-0.426,1.632-0.639,2.565-0.639
			c1.058,0,1.948,0.269,2.67,0.808s1.225,1.297,1.508,2.273l-1.378,0.325c-0.245-0.771-0.602-1.331-1.068-1.682
			c-0.467-0.352-1.054-0.527-1.761-0.527c-0.813,0-1.492,0.195-2.039,0.585c-0.546,0.39-0.93,0.913-1.15,1.569
			c-0.222,0.657-0.332,1.334-0.332,2.031c0,0.9,0.131,1.686,0.394,2.356c0.262,0.672,0.67,1.173,1.223,1.505
			c0.554,0.332,1.152,0.498,1.797,0.498c0.784,0,1.448-0.227,1.992-0.679S87.806,39.002,87.999,38.113z"/>
		<path style="fill:#FFFFFF;" d="M92.472,36.669c0-1.757,0.471-3.131,1.414-4.125c0.943-0.993,2.16-1.49,3.651-1.49
			c0.977,0,1.857,0.233,2.642,0.7s1.382,1.117,1.794,1.952c0.411,0.835,0.616,1.781,0.616,2.84c0,1.073-0.216,2.032-0.649,2.88
			c-0.433,0.847-1.046,1.487-1.84,1.923s-1.65,0.653-2.569,0.653c-0.996,0-1.886-0.241-2.67-0.722
			c-0.784-0.481-1.379-1.138-1.783-1.971C92.674,38.478,92.472,37.597,92.472,36.669z M93.915,36.691
			c0,1.274,0.343,2.279,1.028,3.013s1.545,1.101,2.58,1.101c1.054,0,1.921-0.37,2.602-1.111s1.021-1.792,1.021-3.153
			c0-0.861-0.146-1.613-0.437-2.256s-0.717-1.14-1.277-1.494c-0.561-0.354-1.189-0.53-1.887-0.53c-0.991,0-1.844,0.341-2.559,1.021
			S93.915,35.098,93.915,36.691z"/>
		<path style="fill:#FFFFFF;" d="M106.152,41.822v-10.58h1.436l5.558,8.307v-8.307h1.342v10.58h-1.436l-5.558-8.313v8.313H106.152z"
			/>
		<path style="fill:#FFFFFF;" d="M118.138,38.422l1.32-0.115c0.063,0.529,0.208,0.964,0.437,1.303s0.584,0.613,1.064,0.822
			c0.481,0.21,1.022,0.314,1.624,0.314c0.534,0,1.006-0.079,1.415-0.238c0.408-0.159,0.713-0.376,0.912-0.653
			c0.2-0.276,0.3-0.578,0.3-0.905c0-0.332-0.097-0.622-0.289-0.87c-0.192-0.247-0.51-0.455-0.952-0.624
			c-0.284-0.11-0.912-0.282-1.884-0.516s-1.652-0.454-2.042-0.661c-0.505-0.264-0.882-0.593-1.13-0.984
			c-0.247-0.393-0.371-0.831-0.371-1.317c0-0.534,0.151-1.033,0.454-1.497c0.304-0.465,0.746-0.817,1.328-1.058
			s1.229-0.36,1.941-0.36c0.784,0,1.476,0.126,2.075,0.378c0.599,0.253,1.06,0.625,1.382,1.115c0.322,0.491,0.495,1.047,0.52,1.667
			l-1.343,0.102c-0.072-0.669-0.316-1.174-0.732-1.516s-1.03-0.513-1.844-0.513c-0.847,0-1.464,0.155-1.851,0.466
			c-0.388,0.311-0.581,0.685-0.581,1.122c0,0.38,0.137,0.692,0.411,0.938c0.27,0.245,0.973,0.496,2.11,0.754
			c1.139,0.258,1.919,0.482,2.343,0.675c0.615,0.284,1.07,0.644,1.363,1.079c0.294,0.436,0.44,0.937,0.44,1.505
			c0,0.563-0.161,1.093-0.483,1.591s-0.785,0.886-1.39,1.162c-0.604,0.276-1.283,0.415-2.038,0.415c-0.958,0-1.76-0.14-2.407-0.419
			s-1.154-0.698-1.522-1.259S118.157,39.13,118.138,38.422z"/>
		<path style="fill:#FFFFFF;" d="M137.188,31.242h1.399v6.113c0,1.063-0.12,1.907-0.36,2.532c-0.24,0.626-0.675,1.135-1.303,1.526
			c-0.628,0.393-1.452,0.589-2.472,0.589c-0.991,0-1.802-0.171-2.432-0.513c-0.631-0.342-1.081-0.836-1.35-1.483
			c-0.27-0.646-0.404-1.53-0.404-2.651v-6.113h1.399v6.105c0,0.919,0.086,1.597,0.257,2.031c0.171,0.436,0.464,0.771,0.88,1.007
			c0.416,0.236,0.925,0.354,1.526,0.354c1.03,0,1.764-0.232,2.201-0.699c0.438-0.467,0.657-1.364,0.657-2.692V31.242z"/>
		<path style="fill:#FFFFFF;" d="M142.636,41.822v-10.58h1.399v9.332h5.211v1.248H142.636z"/>
		<path style="fill:#FFFFFF;" d="M154.281,41.822v-9.331h-3.485v-1.249h8.386v1.249h-3.5v9.331H154.281z"/>
		<path style="fill:#FFFFFF;" d="M160.133,41.822l4.063-10.58h1.509l4.33,10.58h-1.595l-1.234-3.204h-4.424l-1.162,3.204H160.133z
			 M163.185,37.477h3.587l-1.104-2.93c-0.337-0.891-0.587-1.621-0.751-2.194c-0.135,0.679-0.324,1.353-0.569,2.021L163.185,37.477z"
			/>
		<path style="fill:#FFFFFF;" d="M172.912,41.822v-10.58h1.436l5.558,8.307v-8.307h1.342v10.58h-1.436l-5.558-8.313v8.313H172.912z"
			/>
		<path style="fill:#FFFFFF;" d="M192.923,38.113l1.399,0.354c-0.293,1.149-0.821,2.026-1.584,2.63
			c-0.763,0.604-1.694,0.906-2.797,0.906c-1.14,0-2.067-0.232-2.781-0.696c-0.715-0.465-1.259-1.137-1.631-2.018
			c-0.373-0.88-0.56-1.826-0.56-2.836c0-1.102,0.21-2.063,0.631-2.883s1.021-1.443,1.798-1.869c0.776-0.426,1.632-0.639,2.565-0.639
			c1.058,0,1.948,0.269,2.67,0.808s1.225,1.297,1.508,2.273l-1.378,0.325c-0.245-0.771-0.602-1.331-1.068-1.682
			c-0.467-0.352-1.054-0.527-1.761-0.527c-0.813,0-1.492,0.195-2.039,0.585c-0.546,0.39-0.93,0.913-1.15,1.569
			c-0.222,0.657-0.332,1.334-0.332,2.031c0,0.9,0.131,1.686,0.394,2.356c0.262,0.672,0.67,1.173,1.223,1.505
			c0.554,0.332,1.152,0.498,1.797,0.498c0.784,0,1.448-0.227,1.992-0.679S192.729,39.002,192.923,38.113z"/>
		<path style="fill:#FFFFFF;" d="M200.802,41.822V37.34l-4.078-6.099h1.703l2.086,3.19c0.385,0.597,0.743,1.193,1.075,1.789
			c0.317-0.553,0.702-1.176,1.155-1.869l2.049-3.11h1.632l-4.223,6.099v4.481H200.802z"/>
	</g>
</g>
</svg>