<svg width="57" height="66" viewBox="0 0 57 66" fill="none" xmlns="http://www.w3.org/2000/svg">
<path d="M20.8774 39.8031C20.8774 39.1843 20.8774 38.6708 20.8774 38.1574C20.8774 37.0764 21.1211 36.8332 22.1655 36.8332H25.9654V35.9738C25.9654 27.3459 25.9654 18.7171 25.9654 10.0874C25.9654 9.68203 25.7137 9.27666 25.5664 8.874C25.5289 8.77131 25.4138 8.69295 25.3897 8.59025C25.1567 7.55253 24.4203 7.56063 23.5687 7.57685C21.271 7.62549 18.9707 7.59306 16.6731 7.59306H15.8536C15.9955 7.99302 16.0919 8.3065 16.2125 8.60917C17.8433 12.6628 19.426 16.7164 21.1264 20.7322C21.6433 21.9645 21.5013 23.1103 21.1104 24.2697C20.0392 27.4558 16.7534 29.4853 13.5426 28.9989C10.0613 28.4719 7.52529 25.6938 7.38336 22.2212C7.38269 21.9093 7.44463 21.6004 7.56545 21.3132C9.28646 16.9894 11.0155 12.67 12.7526 8.35515C12.841 8.13355 12.9159 7.90654 13.0204 7.59306H11.1458C10.2461 7.59306 9.80687 7.26878 9.80687 6.64182C9.80687 6.01486 10.2541 5.7284 11.1164 5.7284C15.4466 5.7284 19.7768 5.7284 24.107 5.7284C24.6827 5.7284 25.1085 5.66895 25.2237 5.00145C25.2617 4.82478 25.3557 4.66542 25.4914 4.54745C26.2305 3.9367 26.2573 3.12868 26.2466 2.25039C26.2371 1.95047 26.2891 1.65179 26.3992 1.37306C26.5094 1.09432 26.6753 0.841523 26.8867 0.63048C27.0981 0.419436 27.3504 0.254692 27.6278 0.146547C27.9051 0.0384027 28.2017 -0.0108118 28.4987 0.00198357C28.795 -0.00525148 29.0896 0.0475684 29.3652 0.157318C29.6408 0.267067 29.8918 0.431516 30.1033 0.64092C30.3148 0.850325 30.4825 1.10043 30.5965 1.37642C30.7105 1.65242 30.7685 1.94869 30.7669 2.24769C30.779 2.42764 30.779 2.60822 30.7669 2.78817C30.7187 3.36919 30.791 3.88265 31.3025 4.28261C31.5352 4.46358 31.7033 4.71582 31.7819 5.00145C31.9292 5.71759 32.3871 5.7311 32.9709 5.7284C37.2805 5.70858 41.5884 5.70858 45.8945 5.7284C46.2159 5.7284 46.6256 5.75813 46.8291 5.95C47.0326 6.14187 47.2174 6.63911 47.1156 6.87692C47.0312 7.04448 46.9119 7.19162 46.7658 7.30824C46.6198 7.42486 46.4504 7.5082 46.2694 7.55253C45.5023 7.61335 44.7321 7.62328 43.9637 7.58225C44.261 8.33893 44.518 9.00372 44.7832 9.66311C46.2667 13.3519 47.7128 17.0596 49.258 20.7241C49.898 22.2347 49.5793 23.6049 48.9607 24.9453C48.3095 26.3588 47.215 27.5165 45.8465 28.2395C44.4779 28.9624 42.9115 29.2103 41.3894 28.9449C39.8672 28.6795 38.4741 27.9154 37.4253 26.7709C36.3766 25.6264 35.7306 24.1652 35.5872 22.6131C35.5365 22.1048 35.6025 21.5916 35.78 21.1132C37.4269 16.9569 39.1113 12.8141 40.7823 8.66592C40.9109 8.33893 41.0234 8.00653 41.1626 7.62549C40.8948 7.60657 40.7234 7.58766 40.5521 7.58766C37.917 7.58766 35.2846 7.58766 32.6495 7.58766C32.2344 7.58766 31.9693 7.67684 31.8702 8.11193C31.8424 8.26796 31.7719 8.41303 31.6667 8.5308C30.9651 9.19289 31.0294 10.0441 31.0294 10.9008C31.0401 19.2351 31.0401 27.5711 31.0294 35.909V36.8359H32.5049C33.3297 36.8359 34.1545 36.8359 34.982 36.8359C35.8095 36.8359 36.1255 37.1305 36.1335 38.0249C36.1335 38.5843 36.1335 39.1437 36.1335 39.8058C36.803 39.8058 37.4189 39.8221 38.0348 39.8058C39.8665 39.7518 41.4331 40.2625 42.4962 41.9975C43.1684 41.2273 43.8004 40.5112 44.4216 39.7869C46.0016 37.9511 47.5798 36.1143 49.1562 34.2767C49.742 33.5731 50.5266 33.0668 51.4052 32.8253C52.2838 32.5838 53.2145 32.6188 54.0729 32.9255C54.909 33.2285 55.6352 33.7791 56.1564 34.5051C56.6776 35.2312 56.9697 36.0991 56.9945 36.9953C57.0493 38.0681 56.6947 39.1213 56.0036 39.9383C52.4313 44.1135 48.8697 48.2968 45.2545 52.4342C43.5112 54.4313 41.2563 55.3798 38.6025 55.369C34.8963 55.3555 31.1927 55.3907 27.4865 55.3555C26.5373 55.3322 25.5939 55.5104 24.7173 55.8786C23.8408 56.2469 23.0508 56.7969 22.3984 57.4931C19.7884 60.1469 17.1694 62.7917 14.5414 65.4274C13.7809 66.1922 13.3926 66.1895 12.6401 65.4274L0.613578 53.299C-0.205865 52.4693 -0.203187 52.1261 0.613578 51.2884C3.53251 48.3428 6.47018 45.4133 9.36501 42.4407C10.1788 41.5862 11.1595 40.9115 12.2451 40.4594C13.3306 40.0072 14.4974 39.7874 15.6715 39.8139C17.3773 39.8004 19.0725 39.8031 20.8774 39.8031ZM19.9026 57.5445C20.3579 57.0418 20.8319 56.4635 21.3514 55.9528C22.0998 55.1739 22.9972 54.5566 23.9893 54.1385C24.9813 53.7204 26.0473 53.5102 27.1223 53.5206C30.9383 53.5206 34.7544 53.5206 38.5704 53.5206C39.6131 53.5415 40.6473 53.3263 41.5968 52.8909C42.5463 52.4555 43.3871 51.811 44.0574 51.0046C47.5334 46.9853 50.9977 42.956 54.4504 38.9167C55.4841 37.7115 55.3877 36.1278 54.2416 35.1334C53.149 34.1767 51.5636 34.3226 50.5487 35.5117C48.1761 38.2628 45.8097 41.0183 43.4496 43.7784C43.259 44.0161 43.1342 44.3005 43.088 44.6026C42.6944 47.0348 40.9966 48.5103 38.557 48.5103H26.7688C26.5682 48.5252 26.3668 48.5252 26.1663 48.5103C25.9432 48.4858 25.7369 48.379 25.5871 48.2104C25.4373 48.0418 25.3544 47.8233 25.3544 47.5969C25.3544 47.3704 25.4373 47.152 25.5871 46.9834C25.7369 46.8148 25.9432 46.708 26.1663 46.6835C26.3656 46.6641 26.5661 46.6595 26.7661 46.67C30.6509 46.67 34.5348 46.67 38.4178 46.67C38.7516 46.6822 39.0856 46.6504 39.4113 46.5754C39.9876 46.4162 40.4878 46.0525 40.8198 45.5511C41.1519 45.0497 41.2936 44.4443 41.2188 43.8459C41.0448 42.5407 39.9843 41.684 38.5008 41.6705C30.8437 41.6705 23.1875 41.6705 15.5323 41.6705C14.038 41.6705 12.616 42.0272 11.502 43.0514C10.4549 44.0189 9.54711 45.1404 8.61252 46.1538L19.9026 57.5445ZM2.39975 52.2505L13.6015 63.5682L18.2745 58.9011L7.05665 47.5699L2.39975 52.2505ZM42.5685 9.13884L37.8152 20.9673H47.3245C45.7552 17.0461 44.2047 13.1925 42.5685 9.13884ZM14.5066 9.34423H14.3406C12.7927 13.1979 11.2422 17.0515 9.67833 20.943H19.1689C17.5996 17.0218 16.0571 13.1844 14.512 9.34423H14.5066ZM29.1307 36.7926V10.3738H27.8721V36.7926H29.1307ZM9.36234 22.8752C9.61406 25.3074 12.0911 27.3207 14.603 27.1991C17.1149 27.0775 19.4393 25.0371 19.4742 22.8752H9.36234ZM47.6325 22.8752H37.5073C37.7108 25.2236 40.1236 27.2423 42.6382 27.1991C45.1527 27.1558 47.5066 25.129 47.6298 22.8833L47.6325 22.8752ZM22.7278 39.7545H34.267V38.706H22.7251L22.7278 39.7545ZM28.5389 4.8393C28.056 4.82748 27.5877 5.00698 27.2343 5.33935C26.8809 5.67172 26.6706 6.13053 26.6483 6.6175C26.638 7.11275 26.8231 7.59185 27.1628 7.9494C27.5026 8.30694 27.9691 8.51365 28.4599 8.52405C28.9507 8.53444 29.4254 8.34767 29.7797 8.00482C30.1341 7.66197 30.3389 7.19112 30.3492 6.69586C30.3438 6.21149 30.1523 5.74814 29.8152 5.40336C29.478 5.05858 29.0214 4.85928 28.5416 4.84741L28.5389 4.8393ZM28.9781 2.94761C28.9074 2.60776 28.818 2.27215 28.7103 1.94231C28.5794 1.89102 28.4342 1.89102 28.3033 1.94231C28.1879 2.27247 28.0913 2.60902 28.014 2.95032L28.9781 2.94761Z" fill="black"/>
</svg>
