<svg width="64" height="66" viewBox="0 0 64 66" fill="none" xmlns="http://www.w3.org/2000/svg">
<g clip-path="url(#clip0_12045_9678)">
<path d="M31.9768 65.9956C27.6483 65.9956 23.3188 65.9956 18.9882 65.9956C17.6007 65.9956 16.5066 65.4715 15.8389 64.2328C15.6271 63.8585 15.5004 63.4424 15.4676 63.0139C15.408 61.5573 15.3316 60.0901 15.7411 58.664C16.6839 55.3836 18.7498 53.1668 22.0382 52.1398C23.386 51.7193 24.7475 51.3399 26.106 50.9545C26.3504 50.8844 26.4589 50.7914 26.4544 50.5157C26.4375 49.4126 26.4437 48.3064 26.4544 47.2033C26.4622 47.1108 26.4424 47.0181 26.3976 46.9368C26.3527 46.8554 26.2848 46.7892 26.2022 46.7462C23.2317 44.8371 21.4897 42.1556 21.0206 38.6513C21.0025 38.5732 20.9673 38.5001 20.9173 38.4374C20.8673 38.3746 20.8039 38.3238 20.7317 38.2886C18.7453 37.5741 17.6344 36.0184 17.6374 33.9128C17.6374 31.8834 17.5732 29.8478 17.6787 27.8183C17.8651 24.1952 19.5521 21.3689 22.5578 19.3409C24.3701 18.1221 26.4024 17.5781 28.5829 17.5781H35.4959C41.1666 17.5781 45.954 21.9783 46.2917 27.6248C46.4239 29.9307 46.4239 32.2423 46.2917 34.5482C46.1909 36.3856 45.0693 37.6122 43.3303 38.2444C43.2228 38.2704 43.1267 38.3308 43.0569 38.4164C42.9871 38.502 42.9473 38.608 42.9437 38.7183C42.4853 42.1784 40.7433 44.8265 37.8247 46.7188C37.7221 46.774 37.6383 46.8584 37.5839 46.9612C37.5295 47.064 37.5069 47.1806 37.5191 47.2963C37.5344 48.3491 37.5359 49.4034 37.5191 50.4562C37.5191 50.7503 37.6031 50.8768 37.8889 50.956C39.3803 51.3795 40.8946 51.7513 42.3508 52.277C45.9907 53.5888 47.994 56.2566 48.4921 60.0474C48.619 61.0088 48.5808 61.9992 48.538 62.9743C48.46 64.7203 46.9488 65.9941 45.0066 65.9956C40.6608 65.9976 36.3175 65.9976 31.9768 65.9956ZM26.6561 53.153C26.5589 53.1658 26.4625 53.1836 26.3673 53.2064C25.0852 53.5797 23.797 53.9331 22.5242 54.3369C20.5591 54.9616 19.1838 56.2536 18.3113 58.1094C17.613 59.5903 17.616 61.1566 17.6802 62.7351C17.7062 63.3582 18.1829 63.7422 18.8094 63.7422C27.5928 63.7422 36.3766 63.7422 45.1609 63.7422C45.8654 63.7422 46.3039 63.3018 46.3116 62.5995C46.3177 62.0164 46.3177 61.4324 46.3116 60.8473C46.281 58.0576 44.4687 55.4171 41.8405 54.4786C40.4178 53.9712 38.9463 53.6025 37.4946 53.1728C37.4373 53.1652 37.3793 53.1652 37.322 53.1728C36.3776 56.0906 33.9404 57.1342 32.232 57.1952C30.1278 57.279 27.6187 56.1043 26.6561 53.153ZM28.8656 29.3176C27.4109 30.7894 25.8095 31.83 23.7084 31.9169C23.6371 31.9143 23.5661 31.927 23.5002 31.9542C23.4342 31.9814 23.3749 32.0223 23.3262 32.0743C23.2775 32.1263 23.2406 32.1882 23.218 32.2556C23.1953 32.3231 23.1875 32.3946 23.195 32.4654C23.195 34.3059 23.1262 36.151 23.2378 37.9839C23.3107 39.136 23.6124 40.2622 24.1255 41.297C24.6385 42.3319 25.3527 43.2548 26.2264 44.0122C27.1002 44.7696 28.1161 45.3463 29.2153 45.7089C30.3144 46.0716 31.4749 46.2129 32.6293 46.1246C36.9537 45.7985 40.398 42.4755 40.7387 38.1591C40.8839 36.3308 40.7815 34.4811 40.7891 32.6406C40.7891 32.054 40.6363 31.9062 40.0373 31.9062H33.3918C32.3097 31.9361 31.2576 31.5499 30.4533 30.8275C29.9185 30.343 29.4051 29.8341 28.8656 29.3176ZM43.0461 35.8509C43.0882 35.8565 43.1308 35.8565 43.1729 35.8509C43.2271 35.8196 43.2783 35.7834 43.3257 35.7427C43.5881 35.5193 43.7961 35.2392 43.9337 34.9237C44.0714 34.6083 44.1352 34.2657 44.1203 33.922C44.1203 32.1713 44.1402 30.4176 44.1127 28.6685C44.1049 27.9976 44.038 27.3287 43.9125 26.6695C43.1607 22.8605 39.6935 19.9169 35.8397 19.8361C33.3948 19.7858 30.9499 19.8026 28.505 19.8117C27.9624 19.8182 27.4214 19.8723 26.8883 19.9732C23.1751 20.6604 20.2917 23.7107 19.9708 27.4161C19.7752 29.6833 19.8898 31.9793 19.9081 34.2632C19.9081 34.9611 20.2794 35.5187 20.9701 35.9392V35.4364C20.9701 34.3958 20.9625 33.3552 20.9701 32.3145C20.9808 31.6473 21.2414 31.0082 21.7005 30.5228C22.1597 30.0373 22.7843 29.7406 23.4517 29.6909C25.3419 29.5781 26.6897 28.6106 27.6676 27.0642C28.1031 26.3755 28.8641 26.2125 29.4723 26.7701C30.221 27.4572 30.953 28.1627 31.6605 28.891C31.9094 29.1558 32.2124 29.3642 32.549 29.5022C32.8857 29.6402 33.2481 29.7046 33.6118 29.6909C35.8382 29.6802 38.0661 29.6909 40.2941 29.6909C41.7686 29.6909 42.9193 30.7071 43.0155 32.1789C43.0858 33.2531 43.0446 34.3349 43.0522 35.4136C43.0476 35.5583 43.0461 35.7061 43.0461 35.8509ZM28.722 47.9042C28.722 48.3963 28.722 48.8183 28.722 49.2312C28.722 50.1698 28.6609 51.116 28.7495 52.0469C28.8337 52.8565 29.2202 53.6048 29.8323 54.1434C30.4443 54.682 31.2371 54.9713 32.0532 54.9539C33.6943 54.9372 35.1307 53.6741 35.2468 52.0058C35.3401 50.6802 35.2789 49.344 35.2835 48.0124C35.2835 47.9925 35.2591 47.9712 35.2255 47.9194C33.1029 48.5494 30.8416 48.5441 28.722 47.9042Z" fill="black"/>
<path d="M27.8127 5.88339C26.0089 6.16146 24.239 6.62613 22.5318 7.26988C18.9822 8.60709 15.769 10.7023 13.1173 13.4085C9.29717 17.3075 6.94853 21.9652 5.95682 27.3161C5.8957 27.6422 5.98891 27.7732 6.27924 27.9103C7.9754 28.7285 8.87695 30.0967 8.84028 31.9738C8.80819 33.8021 7.88218 35.1155 6.22423 35.8925C5.95376 36.019 5.91862 36.1607 5.9614 36.4197C6.83851 41.2648 8.84334 45.5797 12.1317 49.2623C13.1341 50.3852 14.2909 51.3725 15.3987 52.3979C15.903 52.8671 16.0344 53.5253 15.6463 54.0236C15.2582 54.5218 14.543 54.598 13.9868 54.1516C8.49229 49.7641 4.82702 43.499 3.70139 36.5705C3.70059 36.4661 3.6622 36.3654 3.5932 36.2868C3.52421 36.2083 3.4292 36.157 3.32549 36.1424C1.38637 35.6503 0.0156974 33.9332 -0.0056955 31.9997C-0.0225042 29.9123 1.25496 28.1907 3.25825 27.6574C3.56387 27.5736 3.67694 27.4319 3.7289 27.1302C4.64574 21.7442 6.88283 16.9723 10.5319 12.892C14.9632 7.94332 20.478 4.91285 27.0227 3.75033C27.4475 3.67415 27.6492 3.54312 27.7776 3.09975C28.3491 1.13123 30.1171 -0.0587108 32.2854 0.00223384C34.0962 0.0509896 35.7999 1.45424 36.266 3.29781C36.3256 3.53245 36.4051 3.64825 36.674 3.69243C41.4746 4.46303 45.9973 6.44634 49.8114 9.45344C53.6254 12.4605 56.6038 16.3913 58.4627 20.8712C59.3189 22.9109 59.9273 25.0454 60.275 27.2293C60.3162 27.4837 60.4278 27.5766 60.6692 27.6422C61.3796 27.8189 62.0345 28.1699 62.5742 28.6633C63.1139 29.1566 63.5214 29.7767 63.7597 30.467C63.9979 31.1574 64.0593 31.8961 63.9383 32.6162C63.8173 33.3362 63.5177 34.0146 63.0668 34.5898C62.4931 35.3644 61.6644 35.913 60.7258 36.1394C60.6085 36.1522 60.4996 36.2061 60.4184 36.2914C60.3373 36.3768 60.2892 36.4881 60.2826 36.6056C59.404 41.891 57.2265 46.5853 53.6844 50.6122C52.5903 51.8555 51.319 52.9464 50.1027 54.0799C49.5205 54.6223 48.7992 54.5919 48.3775 54.0799C47.9557 53.568 48.0367 52.8732 48.6464 52.3765C50.317 51.0236 51.8178 49.4746 53.116 47.763C55.6505 44.4008 57.3413 40.4827 58.0471 36.3359C58.0914 36.0906 57.9844 36.0114 57.7858 35.9184C56.2363 35.1901 55.3286 33.9865 55.1605 32.2739C55.0714 31.3896 55.2609 30.4996 55.7026 29.7276C56.1444 28.9556 56.8164 28.3401 57.6253 27.9667C58.018 27.7823 58.0837 27.6025 58.0058 27.1942C57.0523 22.1556 54.884 17.7234 51.3755 13.9616C47.5172 9.80975 42.7802 7.20437 37.218 6.06623C36.8956 5.99919 36.5212 5.83159 36.2568 5.93215C36.0292 6.01747 35.9298 6.4258 35.7648 6.68634C34.848 8.12615 33.5369 8.86054 31.8331 8.80416C30.1522 8.74779 28.9298 7.92046 28.1046 6.47151C28.0053 6.29477 27.9243 6.10889 27.8127 5.88339ZM59.5889 34.0627C60.0189 34.0585 60.4381 33.9274 60.7935 33.6859C61.149 33.4444 61.4247 33.1035 61.586 32.7059C61.7473 32.3084 61.787 31.8722 61.6999 31.4522C61.6129 31.0323 61.4031 30.6474 61.0969 30.3462C60.7908 30.045 60.4021 29.8409 59.9798 29.7597C59.5575 29.6786 59.1205 29.7239 58.724 29.89C58.3275 30.0561 57.9892 30.3355 57.7518 30.6931C57.5144 31.0507 57.3885 31.4703 57.39 31.8991C57.3916 32.1852 57.4498 32.4682 57.5612 32.7319C57.6726 32.9955 57.8351 33.2347 58.0394 33.4357C58.2436 33.6366 58.4856 33.7955 58.7515 33.903C59.0174 34.0106 59.3019 34.0649 59.5889 34.0627ZM4.44403 29.7204C4.01449 29.7234 3.59543 29.853 3.23959 30.0929C2.88375 30.3328 2.60703 30.6723 2.44425 31.0687C2.28147 31.4651 2.2399 31.9006 2.32477 32.3204C2.40965 32.7403 2.61717 33.1258 2.92123 33.4283C3.22529 33.7308 3.61231 33.937 4.03357 34.0207C4.45484 34.1045 4.89154 34.0621 5.28872 33.899C5.68589 33.7358 6.02581 33.4592 6.26569 33.1039C6.50557 32.7486 6.63469 32.3305 6.63681 31.9022C6.64445 30.7336 5.6237 29.7234 4.43792 29.7204H4.44403ZM34.1726 4.42834C34.1776 4.1397 34.125 3.85295 34.0176 3.58484C33.9103 3.31672 33.7505 3.07262 33.5475 2.8668C33.3445 2.66097 33.1023 2.49755 32.8353 2.38608C32.5682 2.27461 32.2815 2.21732 31.992 2.21757C31.7043 2.21637 31.4191 2.27169 31.1528 2.38038C30.8864 2.48908 30.6442 2.649 30.4399 2.85104C30.0272 3.25907 29.794 3.81383 29.7916 4.39329C29.7892 4.97276 30.0177 5.52945 30.4269 5.9409C30.8361 6.35236 31.3925 6.58488 31.9737 6.5873C32.5494 6.58618 33.1016 6.35985 33.5117 5.95696C33.9217 5.55408 34.1568 5.00684 34.1665 4.43291L34.1726 4.42834Z" fill="black"/>
</g>
<defs>
<clipPath id="clip0_12045_9678">
<rect width="64" height="66" fill="white"/>
</clipPath>
</defs>
</svg>
