<svg width="55" height="66" viewBox="0 0 55 66" fill="none" xmlns="http://www.w3.org/2000/svg">
<g clip-path="url(#clip0_12045_9661)">
<path d="M44.3983 53.2466C45.953 55.8835 44.7619 58.653 42.2794 59.5762C42.4674 60.1103 42.7391 60.6276 42.8289 61.1806C43.2469 63.8071 41.3306 65.9961 38.6183 65.9982C32.5415 65.9982 26.4655 65.9982 20.3901 65.9982H14.0689C12.5142 65.9982 11.5132 65.3316 10.9344 63.8723C10.8132 63.5737 10.6355 63.5421 10.3743 63.5442C9.24174 63.5442 8.10983 63.5442 6.97863 63.5442C6.10724 63.5442 5.78125 63.2057 5.78125 62.3309C5.78125 56.077 5.78125 49.8224 5.78125 43.5672C5.78125 42.7071 6.12187 42.3706 6.99117 42.3664C8.17601 42.3664 9.35876 42.3664 10.5436 42.3664C10.6695 42.3829 10.797 42.3528 10.9023 42.2816C11.0077 42.2104 11.0837 42.103 11.1162 41.9795C11.3841 41.3 11.8076 40.6936 12.3522 40.2098C12.8969 39.7261 13.5473 39.3785 14.2507 39.1953C15.382 38.8874 16.399 38.2529 17.1762 37.3701C18.639 35.7235 20.1017 34.0875 21.552 32.4284C22.9678 30.8545 23.8221 28.8509 23.9801 26.7339C24.1494 24.3576 26.0301 22.7805 28.1072 22.8457C29.1906 22.8895 30.2164 23.3483 30.9746 24.1281C31.7329 24.908 32.1664 25.95 32.1863 27.0409C32.3284 31.1406 31.0971 35.1695 28.6903 38.4804C28.5837 38.6297 28.4813 38.7832 28.2995 39.046H29.0225C34.177 39.046 39.3315 39.046 44.486 39.046C45.4353 39.0312 46.3602 39.3488 47.1024 39.9445C47.8446 40.5403 48.358 41.3771 48.5546 42.3118C48.7228 43.1435 48.6266 44.0075 48.2797 44.7812C47.9328 45.5549 47.3527 46.1991 46.6217 46.6226C46.4754 46.7088 46.3312 46.7992 46.1849 46.8876C47.6999 49.1692 46.9811 52.0395 44.3983 53.2466ZM26.3248 64.0762H37.7636C38.1126 64.0762 38.4615 64.0889 38.8084 64.0762C39.3527 64.0618 39.8731 63.8486 40.2727 63.4763C40.6722 63.1041 40.9234 62.5983 40.9796 62.0533C41.0653 60.9493 40.2795 59.9883 39.0989 59.7717C38.8756 59.7376 38.6497 59.7236 38.4239 59.7297C36.2486 59.7297 34.0732 59.7297 31.8958 59.717C31.3065 59.717 30.899 59.3385 30.876 58.817C30.8531 58.2955 31.2605 57.856 31.8624 57.814C32.017 57.8035 32.1758 57.814 32.3325 57.814C35.2037 57.814 38.077 57.814 40.9503 57.814C41.9617 57.814 42.7453 57.2672 43.0546 56.3882C43.1737 56.062 43.2123 55.7115 43.1671 55.3669C43.1219 55.0223 42.9942 54.6939 42.7951 54.4099C42.5959 54.1259 42.3312 53.8949 42.0237 53.7366C41.7162 53.5782 41.3751 53.4974 41.0297 53.501C37.8263 53.4821 34.6228 53.501 31.4173 53.4884C31.2067 53.496 30.9959 53.4762 30.7904 53.4295C30.5778 53.3729 30.3925 53.2414 30.2682 53.0588C30.1439 52.8762 30.089 52.6548 30.1133 52.4349C30.1327 52.2152 30.2283 52.0094 30.3835 51.8536C30.5386 51.6979 30.7434 51.6021 30.9617 51.5832C31.1355 51.5703 31.3099 51.5668 31.4841 51.5727C35.2107 51.5727 38.9366 51.5727 42.6618 51.5727C43.5227 51.5727 44.2416 51.2993 44.7096 50.5486C44.9258 50.2255 45.0464 49.8473 45.0575 49.458C45.0686 49.0686 44.9697 48.6841 44.7723 48.349C44.5835 47.9897 44.2964 47.6923 43.945 47.4918C43.5936 47.2913 43.1926 47.1962 42.7892 47.2177H30.5856C29.8688 47.2177 29.4467 46.8686 29.4404 46.2861C29.4342 45.7037 29.8584 45.3104 30.6002 45.2978H44.1266C44.3533 45.3035 44.5802 45.2943 44.8058 45.2705C45.2501 45.2105 45.6665 45.0183 46.0016 44.7185C46.3366 44.4188 46.5751 44.0252 46.6865 43.5882C46.7902 43.1572 46.7495 42.7037 46.5708 42.2984C46.392 41.893 46.0852 41.5584 45.698 41.3466C45.238 41.1097 44.729 40.9851 44.2123 40.9828C38.3445 40.9596 32.4767 40.9659 26.611 40.9701C26.0719 40.9701 25.5432 40.9702 25.282 40.375C25.0208 39.7799 25.3781 39.4246 25.7376 39.0418C27.4571 37.2428 28.7438 35.071 29.499 32.6933C30.0734 30.8885 30.337 28.9982 30.2784 27.104C30.2366 25.8591 29.196 24.7908 28.0257 24.7719C27.0311 24.753 25.9967 25.5458 25.8859 26.8979C25.6781 29.4714 24.627 31.9026 22.8977 33.81C21.4893 35.406 20.0662 36.9916 18.6599 38.5876C17.6367 39.7721 16.289 40.6264 14.7856 41.0438C14.1604 41.196 13.6071 41.5618 13.2199 42.0787C12.8328 42.5956 12.6358 43.2317 12.6625 43.8784C12.6625 50.1154 12.6625 56.3539 12.6625 62.5937C12.6625 63.6452 13.1013 64.0805 14.1629 64.0805L26.3248 64.0762ZM10.74 61.6117V60.9199C10.74 56.7492 10.74 52.5793 10.74 48.41C10.74 47.1841 10.7296 45.9581 10.74 44.7321C10.74 44.3894 10.6293 44.2674 10.2887 44.2779C9.64504 44.299 8.99934 44.2779 8.35572 44.2779C7.7121 44.2779 7.68285 44.2779 7.68285 44.9677V60.9493C7.68285 61.0545 7.64732 61.1827 7.6933 61.2584C7.77688 61.393 7.90226 61.5907 8.02346 61.5949C8.89694 61.6327 9.76624 61.6117 10.74 61.6117Z" fill="black"/>
<path d="M19.8526 8.45976C21.0709 8.45976 22.2912 8.43662 23.5095 8.47237C23.965 8.48709 24.1364 8.31045 24.268 7.9004C25.0099 5.54941 25.7872 3.20894 26.5332 0.857959C26.6962 0.34907 26.9658 0 27.5091 0C28.0524 0 28.3199 0.361687 28.4808 0.864268C29.231 3.23208 30.0083 5.59147 30.7585 7.95928C30.7848 8.11926 30.8724 8.26248 31.0026 8.35807C31.1327 8.45365 31.295 8.49395 31.4544 8.47027C33.9098 8.45135 36.3651 8.47027 38.8184 8.45555C39.3554 8.45555 39.788 8.57542 39.9865 9.12847C40.1474 9.57637 39.9614 9.9696 39.4244 10.3544C37.4246 11.8159 35.431 13.2858 33.4229 14.7326C33.359 14.7647 33.3021 14.8092 33.2555 14.8636C33.2089 14.918 33.1735 14.9811 33.1514 15.0494C33.1292 15.1177 33.1207 15.1897 33.1264 15.2613C33.1322 15.3329 33.1519 15.4026 33.1846 15.4664C33.9599 17.8258 34.7122 20.1916 35.4833 22.5531C35.6484 23.0598 35.6922 23.5246 35.2116 23.8778C34.731 24.2311 34.3026 24.044 33.8784 23.7306C31.8828 22.2586 29.8746 20.814 27.8873 19.3378C27.8373 19.2865 27.7777 19.2457 27.7118 19.2179C27.646 19.1901 27.5753 19.1757 27.5039 19.1757C27.4325 19.1757 27.3618 19.1901 27.2959 19.2179C27.2301 19.2457 27.1704 19.2865 27.1204 19.3378C25.129 20.8098 23.1271 22.2692 21.1294 23.7306C20.561 24.1512 20.1012 24.1765 19.7126 23.8085C19.3636 23.4783 19.3594 23.0788 19.5036 22.6456C20.2705 20.2841 21.0207 17.9163 21.8022 15.559C21.9276 15.1742 21.9151 14.9555 21.5494 14.6968C19.5496 13.2669 17.579 11.8012 15.5876 10.3502C15.0505 9.95909 14.875 9.58478 15.0359 9.12216C15.2302 8.5607 15.6732 8.44924 16.204 8.45555C17.416 8.47027 18.6343 8.46186 19.8526 8.45976ZM27.5843 4.30453H27.4569C27.3984 4.46435 27.3357 4.62206 27.2834 4.78188C26.7819 6.32396 26.2818 7.87236 25.783 9.42707C25.5386 10.1862 25.2836 10.3776 24.4979 10.3797H19.5872C19.4263 10.3797 19.2654 10.3965 18.9707 10.4133C19.2173 10.6047 19.349 10.7119 19.4848 10.8128C20.8076 11.7823 22.1345 12.7454 23.4552 13.7169C24.0591 14.1627 24.1489 14.4634 23.9253 15.1615C23.6474 16.0279 23.3632 16.8922 23.0895 17.7586C22.8157 18.6249 22.5315 19.5144 22.2536 20.3934C22.4825 20.3355 22.6963 20.2286 22.8805 20.0801C24.1907 19.1233 25.4968 18.1623 26.8112 17.2118C27.3628 16.8102 27.6888 16.8123 28.2342 17.2118C28.928 17.7123 29.6134 18.2233 30.303 18.728L32.8106 20.5469C32.7416 20.2694 32.7145 20.1264 32.6664 19.9771C32.1593 18.3943 31.6501 16.8123 31.1389 15.2309C30.8881 14.4592 30.9738 14.1795 31.6195 13.7043C32.9304 12.7454 34.2399 11.7879 35.548 10.8318C35.6901 10.7266 35.8218 10.6068 35.966 10.4932L35.9158 10.3839H35.3579C33.7217 10.3839 32.0855 10.3839 30.4493 10.3839C29.7868 10.3839 29.5089 10.1736 29.302 9.54273C29.1871 9.19366 29.0805 8.84248 28.9677 8.4913L27.5843 4.30453Z" fill="black"/>
<path d="M39.5298 17.9383C40.3657 17.9383 41.2015 17.9068 42.0374 17.951C42.5159 17.9762 42.704 17.7827 42.8357 17.3559C43.3434 15.7177 43.8805 14.0922 44.4008 12.4583C44.5596 11.9536 44.8188 11.6172 45.383 11.6172C45.9472 11.6172 46.1979 11.9726 46.3547 12.4752C46.8666 14.1112 47.4141 15.7346 47.9177 17.3727C48.0536 17.8122 48.2604 17.9636 48.7243 17.9573C50.4295 17.9257 52.1368 17.9573 53.8419 17.9405C54.3622 17.9405 54.7802 18.0729 54.9515 18.6134C55.1229 19.1538 54.8554 19.5071 54.4375 19.812C53.0228 20.8193 51.6373 21.8707 50.2059 22.8864C49.8904 23.1093 49.8402 23.3069 49.9614 23.6686C50.5187 25.3257 51.0592 26.9883 51.583 28.6566C51.8693 29.5629 51.374 30.2526 50.5528 30.0802C50.3361 30.0193 50.1337 29.9157 49.9572 29.7753C48.5592 28.7617 47.1613 27.7502 45.7779 26.7135C45.7245 26.6598 45.6612 26.6172 45.5914 26.5881C45.5217 26.559 45.447 26.5441 45.3715 26.5441C45.296 26.5441 45.2212 26.559 45.1515 26.5881C45.0817 26.6172 45.0184 26.6598 44.965 26.7135C43.5796 27.746 42.1816 28.7596 40.7857 29.7795C40.2654 30.1622 39.8328 30.2148 39.4483 29.9267C38.9928 29.586 39.0074 29.1381 39.1662 28.6524C39.7095 26.9701 40.234 25.2878 40.7941 23.6055C40.8253 23.5452 40.8444 23.4791 40.8501 23.4113C40.8558 23.3435 40.848 23.2752 40.8272 23.2104C40.8063 23.1456 40.7729 23.0856 40.7289 23.034C40.6848 22.9823 40.6309 22.94 40.5705 22.9095C39.1704 21.9022 37.7808 20.876 36.3911 19.8562C35.8144 19.4356 35.6347 19.0655 35.7977 18.5944C36.0066 17.9993 36.481 17.9215 37.018 17.9278C37.8581 17.9468 38.6939 17.9383 39.5298 17.9383ZM39.9039 19.8583L39.8474 19.9886C39.9937 20.1043 40.1379 20.2242 40.2884 20.3356C41.0051 20.8613 41.726 21.387 42.4407 21.9106C43.0509 22.3627 43.1303 22.6256 42.8963 23.3532C42.7312 23.8684 42.5535 24.3815 42.3885 24.8967C42.2234 25.4119 42.0687 25.9334 41.9078 26.4507C42.8983 25.8598 43.7885 25.21 44.6683 24.5686C45.2074 24.1775 45.5543 24.1817 46.0934 24.5686C46.8833 25.1427 47.667 25.7252 48.4569 26.2993C48.592 26.3831 48.7315 26.4596 48.8748 26.5285C48.507 25.3803 48.1748 24.3541 47.8488 23.3216C47.6398 22.6298 47.7213 22.3417 48.2918 21.919C49.0608 21.3492 49.8381 20.7877 50.6092 20.2178C50.7221 20.1358 50.8182 20.0328 51.0167 19.854H47.7485C46.9126 19.854 46.6827 19.69 46.4194 18.893C46.0914 17.8879 45.7654 16.8827 45.3955 15.7388C45.2806 16.0227 45.2095 16.1741 45.1594 16.3318C44.8898 17.1624 44.6265 17.9972 44.359 18.8279C44.0769 19.6942 43.8638 19.8519 42.9694 19.8519L39.9039 19.8583Z" fill="black"/>
<path d="M3.79512 17.9332C4.63098 17.9332 5.46685 17.9101 6.30272 17.9332C6.73319 17.9501 6.94215 17.8323 7.07798 17.3907C7.5795 15.7337 8.13953 14.0934 8.65986 12.4427C8.81867 11.9422 9.07779 11.6016 9.63991 11.6016C10.202 11.6016 10.4549 11.9696 10.6116 12.4637C11.1466 14.146 11.7066 15.8283 12.2353 17.5106C12.2593 17.6447 12.3347 17.764 12.4454 17.8427C12.556 17.9214 12.693 17.9532 12.8267 17.9311C14.5673 17.9164 16.308 17.9311 18.0508 17.9206C18.5858 17.9206 19.0309 18.0426 19.2127 18.5998C19.3945 19.1571 19.0748 19.5251 18.6506 19.8321C17.2964 20.8141 15.9591 21.8256 14.5841 22.7761C14.1494 23.0768 14.1055 23.346 14.2643 23.8128C14.7826 25.3163 15.2569 26.8367 15.748 28.3508C15.7919 28.4832 15.8337 28.6157 15.8734 28.7503C16.0071 29.2108 15.9612 29.6356 15.5432 29.9216C15.1253 30.2076 14.722 30.1319 14.3312 29.8501C12.9102 28.8092 11.483 27.7788 10.0725 26.7252C9.7632 26.4939 9.55215 26.4603 9.21989 26.7126C7.85743 27.743 6.46362 28.7356 5.08444 29.7428C4.52859 30.1487 4.08558 30.2139 3.70108 29.9132C3.23509 29.5494 3.28315 29.072 3.44823 28.5779C3.97901 26.9482 4.49307 25.3121 5.03847 23.6887C5.17848 23.2808 5.08653 23.0684 4.74801 22.8287C3.3542 21.8382 1.98129 20.8205 0.602109 19.8111C0.0713343 19.4221 -0.10211 19.0351 0.0608835 18.5767C0.251043 18.0426 0.673159 17.9143 1.18722 17.9206C2.05443 17.9416 2.92582 17.9332 3.79512 17.9332ZM13.0252 26.5276C13.0523 26.4098 13.0732 26.372 13.0649 26.3467C12.7472 25.3458 12.4282 24.3469 12.1078 23.3502C11.8821 22.6499 11.9782 22.3387 12.5675 21.9034C13.2968 21.3672 14.0303 20.8373 14.7617 20.2989C14.9017 20.1959 15.0313 20.0739 15.165 19.9604L15.1086 19.8552H12.6198C10.9898 19.8552 10.9898 19.8552 10.48 18.2802C10.2208 17.4748 9.95127 16.6715 9.68797 15.8682C9.28342 16.8234 8.92839 17.799 8.62434 18.7912C8.31924 19.7228 8.13326 19.8552 7.16157 19.8552H4.11066C4.8408 20.5122 5.60831 21.1259 6.40929 21.6931C7.36636 22.3976 7.40815 22.5343 7.03619 23.6656C6.73528 24.5867 6.44482 25.5119 6.15017 26.4372C7.06714 25.8855 7.9544 25.2854 8.80822 24.6392C9.47692 24.1493 9.77574 24.1514 10.4444 24.6392C11.2949 25.2617 12.1433 25.8757 13.0252 26.5276Z" fill="black"/>
</g>
<defs>
<clipPath id="clip0_12045_9661">
<rect width="55" height="66" fill="white"/>
</clipPath>
</defs>
</svg>
