<svg width="66" height="66" viewBox="0 0 66 66" fill="none" xmlns="http://www.w3.org/2000/svg">
<g clip-path="url(#clip0_12045_9666)">
<path d="M0.0101467 60.1898V59.6923C0.0101467 55.5587 0.0245547 51.4251 6.11534e-05 47.2915C-0.00714283 46.166 0.622485 45.1652 1.70308 44.7795C2.01419 44.6905 2.33791 44.6532 2.66121 44.6691C4.0415 44.6576 5.42178 44.6691 6.8035 44.6691C8.39991 44.6691 9.99631 44.6791 11.5927 44.6691C12.5019 44.6619 13.1776 45.0619 13.6804 45.7803C14.0262 46.2706 14.1127 46.2419 14.6429 46.0211C16.4179 45.287 17.6109 43.8504 18.9653 42.5944C19.5266 42.0776 20.1315 41.6099 20.7735 41.1965C21.411 40.7779 22.0863 40.4194 22.7906 40.1254C23.3351 39.905 23.9105 39.7691 24.4965 39.7225C25.992 39.5964 27.4573 39.8659 28.914 40.1871C29.4514 40.3032 29.9946 40.3935 30.5363 40.4896C31.2682 40.6201 32.0002 40.7376 32.7306 40.8739C33.5533 41.0258 34.3731 41.1922 35.1958 41.3513C35.7366 41.4564 36.2774 41.5587 36.8182 41.6581C37.5126 41.7857 38.2028 41.932 38.9016 42.0295C39.5089 42.1019 40.0952 42.2956 40.6255 42.5989C41.1558 42.9021 41.6191 43.3088 41.9878 43.7945C42.6544 44.6161 42.9829 45.6589 42.907 46.7122C42.7888 48.222 42.1462 49.4637 40.851 50.3311C40.0266 50.871 39.0552 51.1453 38.0688 51.1168C35.2837 51.1082 32.4987 51.1168 29.7122 51.1168C28.9529 51.1168 28.5682 50.8473 28.3175 50.2193C28.0394 49.5224 28.5797 48.7038 29.3505 48.569C29.5055 48.5513 29.6616 48.5464 29.8173 48.5546C32.6154 48.5546 35.412 48.5417 38.21 48.5546C38.5749 48.571 38.9376 48.4908 39.2611 48.322C39.5846 48.1532 39.8573 47.902 40.0513 47.594C40.4403 47.032 40.3885 45.5208 39.5298 44.9874C38.9635 44.6361 38.3397 44.5257 37.7014 44.4139C36.9003 44.2791 36.1021 44.1271 35.3025 43.968C34.7261 43.859 34.1498 43.74 33.5735 43.6353C32.807 43.4919 32.0391 43.3729 31.2682 43.231C30.47 43.0876 29.6747 42.917 28.8765 42.7622C27.3334 42.4625 25.7817 42.1313 24.2069 42.3836C23.6176 42.4783 23.0427 42.7923 22.5111 43.0934C21.053 43.9178 19.9781 45.1924 18.765 46.3122C17.8963 47.1464 16.8822 47.8164 15.7725 48.2894C15.2999 48.483 14.8143 48.6493 14.3475 48.8543C14.2173 48.9233 14.1154 49.0354 14.0594 49.1712C14.0168 49.3202 14.0026 49.4758 14.0176 49.63C14.0176 53.2259 14.0176 56.8218 14.0176 60.4178C14.0176 60.8207 14.1199 60.9483 14.5017 60.8694C16.4251 60.4751 18.35 60.726 20.2749 60.8264C22.8396 60.9497 25.4037 61.0835 27.9674 61.2279C30.5896 61.3779 33.2119 61.5414 35.8341 61.7182C37.0803 61.807 38.3327 61.7064 39.5485 61.42C40.7812 61.1218 41.9468 60.596 42.9848 59.8701C44.074 59.1188 45.1806 58.3918 46.2756 57.6477C47.2409 56.991 48.1976 56.3215 49.1644 55.6677C50.3703 54.8533 51.5849 54.0518 52.7908 53.2388C53.7591 52.5864 54.7186 51.9197 55.6868 51.2659C56.4778 50.7326 57.2717 50.2107 58.067 49.6787C59.1361 48.9599 60.2028 48.2387 61.2671 47.5151C61.6431 47.2599 62.0148 47.0018 62.388 46.7452C62.9111 46.3785 63.2776 45.8305 63.4156 45.2087C63.5537 44.587 63.4534 43.9364 63.1343 43.3844C62.4888 42.2704 61.3924 41.846 60.2023 42.1198C59.6433 42.2489 59.126 42.5586 58.5929 42.7923C58.0253 43.0417 57.4605 43.297 56.8957 43.5507L54.5904 44.5902C54.0688 44.8239 53.5458 45.0519 53.0271 45.287C52.4407 45.5523 51.8587 45.8261 51.2723 46.0885C50.7608 46.3165 50.245 46.5316 49.7349 46.761C49.1485 47.0248 48.5679 47.3001 47.9815 47.5639C47.493 47.7833 47.0118 48.0284 46.5075 48.1991C45.7871 48.4442 44.8319 47.8134 44.9126 46.8269C44.9745 46.0728 45.5307 45.8448 46.0868 45.5924C46.643 45.3401 47.2395 45.082 47.8158 44.8268C48.3921 44.5716 48.9252 44.3393 49.4799 44.0927C50.0015 43.8604 50.5216 43.6239 51.0432 43.3901C51.5964 43.1407 52.1483 42.8926 52.7001 42.6417C53.2519 42.3908 53.8441 42.1126 54.4204 41.8546C54.9405 41.6209 55.4678 41.4001 55.988 41.1678C56.5528 40.9154 57.1118 40.6488 57.678 40.4007C58.7154 39.9433 59.747 39.4157 60.9155 39.473C62.7064 39.5619 64.1357 40.3333 65.1529 41.8417C65.8506 42.8259 66.1401 44.0399 65.9612 45.2311C65.8667 45.9589 65.6163 46.6581 65.2271 47.2814C64.8379 47.9047 64.3188 48.4377 63.7049 48.8443C62.4744 49.6845 61.243 50.5223 60.0107 51.3577C58.9142 52.099 57.8091 52.8288 56.7113 53.57C55.6134 54.3113 54.5501 55.0497 53.4637 55.7838C52.0906 56.7114 50.7103 57.6291 49.3344 58.5553C48.2682 59.2722 47.2135 60.0106 46.1358 60.7146C45.0105 61.4501 43.8925 62.2043 42.7211 62.8652C41.8235 63.3412 40.8588 63.6796 39.8597 63.8689C37.4103 64.3894 34.961 64.137 32.5116 63.9592C31.3028 63.8703 30.0882 63.8603 28.8779 63.7915C26.1116 63.6338 23.3453 63.4531 20.579 63.3011C19.105 63.2208 17.6296 63.1577 16.1543 63.1362C15.5952 63.1276 15.0333 63.2409 14.4757 63.3226C14.2049 63.3613 13.9772 63.4832 13.9455 63.813C13.8913 64.4241 13.604 64.9915 13.1426 65.3984C12.6812 65.8053 12.0807 66.0209 11.4645 66.0009C10.3248 65.9723 9.1837 66.0009 8.04259 66.0009C6.21854 66.0009 4.39305 65.9909 2.56756 66.0009C1.69444 66.0009 0.968277 65.7343 0.475524 64.9973C0.182412 64.6005 0.0198514 64.1232 0.0101467 63.6309C0.0101467 63.2753 0.0101467 62.914 0.0101467 62.4839M11.4731 55.4411V47.8836C11.4731 47.3431 11.404 47.2657 10.8521 47.2657C8.25871 47.2657 5.66527 47.2657 3.07184 47.2585C2.73469 47.2585 2.59782 47.389 2.59782 47.7259C2.59782 52.8598 2.59782 57.9942 2.59782 63.1291C2.59782 63.4474 2.72893 63.5492 3.03006 63.5477C5.68256 63.5477 8.33363 63.5477 10.9861 63.5477C11.4184 63.5477 11.4731 63.4803 11.4731 63.0402V55.4411Z" fill="black"/>
<path d="M49.7269 11.1092C49.6621 17.0967 44.772 22.0461 38.6155 22.0131C32.6131 21.9816 27.4522 17.2128 27.6294 10.6002C27.7865 4.7575 32.4864 0.0360436 38.6126 0.000198952C44.7389 -0.0356457 49.6779 4.77614 49.7269 11.1092ZM38.725 2.60252C34.0035 2.38315 30.2243 6.58414 30.1595 10.7937C30.0845 15.5869 34.0295 19.4796 38.6342 19.4653C40.8908 19.471 43.0578 18.5868 44.6607 17.0062C46.2636 15.4255 47.1719 13.2773 47.1868 11.0317C47.1969 6.44506 43.3759 2.46918 38.725 2.60252Z" fill="black"/>
<path d="M38.6559 28.4481C39.4728 27.6065 40.271 26.7878 41.0677 25.9677C41.8933 25.1174 42.6973 24.2471 43.556 23.4313C43.8237 23.1775 44.1738 23.0275 44.5429 23.0083C45.6783 23.0298 46.8309 23.047 47.9403 23.2607C49.0414 23.4911 50.088 23.9291 51.0237 24.5511C52.0652 25.2123 52.974 26.0608 53.7035 27.053C54.1214 27.6265 54.4239 28.2732 54.7712 28.8969C55.212 29.7041 55.3475 30.6074 55.5521 31.4849C55.5989 31.6581 55.626 31.8361 55.6328 32.0154C55.6428 33.4606 55.6198 34.9059 55.663 36.3511C55.6817 37.0293 55.0031 37.7362 54.2669 37.6501C53.8577 37.6014 53.3333 37.2343 53.2396 36.8286C53.1731 36.5498 53.1364 36.2648 53.1301 35.9783C53.1171 35.0708 53.1503 34.1617 53.1171 33.2542C53.0912 32.5645 53.0725 31.8562 52.9039 31.1938C52.5334 29.6803 51.6911 28.3222 50.4978 27.314C49.8157 26.7372 49.0407 26.2791 48.2055 25.9591C47.2462 25.6062 46.2201 25.4701 45.2014 25.5605C45.0494 25.5897 44.9116 25.6684 44.8095 25.7841C43.9854 26.6301 43.1756 27.4903 42.3601 28.3391C41.4135 29.3155 40.4727 30.2963 39.5045 31.2497C39.065 31.6799 38.2006 31.6598 37.7755 31.2253C36.7382 30.1744 35.7166 29.1062 34.6908 28.0438C33.9704 27.2939 33.2586 26.5326 32.5224 25.7985C32.3663 25.6576 32.1677 25.5723 31.9576 25.5562C30.5565 25.4497 29.1565 25.7767 27.9493 26.4924C26.7725 27.1648 25.7987 28.1393 25.1297 29.3141C24.4643 30.4781 24.1399 31.8043 24.1931 33.1423C24.2176 34.1331 24.2119 35.1252 24.1931 36.116C24.1831 36.6408 24.0491 37.1196 23.565 37.4508C23.3936 37.5738 23.1922 37.6486 22.9818 37.6675C22.7714 37.6864 22.5598 37.6487 22.3691 37.5584C21.9772 37.3921 21.6487 37.0824 21.6055 36.5977C21.6055 36.5504 21.6055 36.5017 21.6055 36.4544C21.6055 35.0335 21.6055 33.6112 21.6055 32.1903C21.6055 31.32 21.8619 30.5042 22.127 29.6855C22.392 28.822 22.8081 28.012 23.356 27.2925C23.9108 26.5623 24.5384 25.8898 25.2291 25.2852C25.8833 24.7319 26.6104 24.2703 27.3903 23.913C28.162 23.5707 28.9752 23.3297 29.8094 23.1962C30.7372 23.0413 31.6925 23.0356 32.6362 22.9854C32.847 22.9774 33.0569 23.0164 33.2505 23.0995C33.4442 23.1826 33.6168 23.3077 33.7557 23.4657C35.2513 25.0094 36.7468 26.555 38.2423 28.1026C38.3742 28.2247 38.5122 28.34 38.6559 28.4481Z" fill="black"/>
<path d="M7.03025 62.1038C6.06203 62.1568 5.21773 61.3424 5.21484 60.303C5.2179 59.8238 5.4121 59.3655 5.75471 59.0289C6.09733 58.6922 6.5603 58.5048 7.04177 58.5078C7.52325 58.5109 7.98379 58.7041 8.32208 59.0451C8.66037 59.386 8.84871 59.8468 8.84565 60.3259C8.84277 61.1819 8.10364 62.1669 7.03025 62.1038Z" fill="black"/>
</g>
<defs>
<clipPath id="clip0_12045_9666">
<rect width="66" height="66" fill="white"/>
</clipPath>
</defs>
</svg>
